<svg id="_3anqod" data-name="3anqod" xmlns="http://www.w3.org/2000/svg" width="278.1" height="195.202" viewBox="0 0 278.1 195.202">
  <path id="Path_766" data-name="Path 766" d="M1359.879,364l2.018,12.055c1.109,6.658,2.068,12,2.168,11.955.1-.152,4.086-23.051,4.137-23.909" transform="translate(-1224.632 -364)" fill="#fff"/>
  <path id="Path_767" data-name="Path 767" d="M1335.292,382.756c-.756.706-.4,5.649.606,8.827a25.748,25.748,0,0,0,12.912,15.132c2.875,1.412,3.531,1.564,7.112,1.363,5.2-.2,7.969-1.614,12.559-6.154,5.2-5.195,8.272-12.458,7.415-17.653-.253-1.715-.4-1.816-2.169-1.816-4.893,0-13.063,6.456-16.04,12.66-.807,1.765-1.664,3.682-1.866,4.237-.252.807-.554.454-1.513-1.866-3.077-7.566-10.492-14.224-16.544-14.88a4.666,4.666,0,0,0-2.472.152" transform="translate(-1216.034 -370.348)" fill="#fff"/>
  <path id="Path_768" data-name="Path 768" d="M1306.771,423a9,9,0,0,0-5.4,4.691c-4.388,9.029,6.456,17.553,14.123,11.1a9.216,9.216,0,0,0,.353-13.619,9.411,9.411,0,0,0-9.079-2.169" transform="translate(-1204.159 -384.162)" fill="#fff"/>
  <path id="Path_769" data-name="Path 769" d="M1341.383,423a9,9,0,0,0-5.4,4.691,9.144,9.144,0,0,0,7.314,13.266,9.651,9.651,0,0,0,8.423-3.934c2.572-3.178,1.968-8.878-1.261-11.854a9.41,9.41,0,0,0-9.079-2.169" transform="translate(-1216.073 -384.162)" fill="#fff"/>
  <path id="Path_770" data-name="Path 770" d="M1375.946,423a9.661,9.661,0,0,0-6.457,8.928,10.546,10.546,0,0,0,3.984,7.566,9.543,9.543,0,0,0,13.518-3.531,11.4,11.4,0,0,0,0-8.171A9.376,9.376,0,0,0,1375.946,423" transform="translate(-1227.937 -384.157)" fill="#fff"/>
  <path id="Path_771" data-name="Path 771" d="M1410.57,423a9,9,0,0,0-5.4,4.691c-4.389,9.029,6.456,17.553,14.123,11.1a9.215,9.215,0,0,0,.353-13.619A9.409,9.409,0,0,0,1410.57,423" transform="translate(-1239.864 -384.162)" fill="#fff"/>
  <path id="Path_772" data-name="Path 772" d="M1260.11,435.563c-6.2.807-10.845,1.967-13.417,3.228-8.676,4.439-16.241,30.365-16.948,58.006-.3,12.207.252,15.939,2.774,19.116,2.169,2.673,2.573,2.421,1.463-.807-.908-2.572-1.059-4.086-1.009-12.257.1-24.766,6.2-49.834,14.275-58.661a10.635,10.635,0,0,1,5.9-3.834,71.91,71.91,0,0,1,15.182-2.572c2.017,0,2.118-.05,2.118-1.513,0-1.513-.05-1.513-2.623-1.463-1.463.051-4.943.353-7.717.756" transform="translate(-1179.842 -388.351)" fill="#fff"/>
  <path id="Path_773" data-name="Path 773" d="M1440.355,435.543c.151.807.958,1.059,5.7,1.564,6.809.756,12.408,1.967,15.283,3.278,6.759,3.178,12.912,17.957,15.939,37.981a139.207,139.207,0,0,1,1.765,17.2c.5,9.381,0,16.948-1.412,20.175l-1.059,2.321,1.161-.757c3.581-2.371,4.893-10.491,3.985-24.513-1.664-24.161-6.911-43.529-13.972-51.348a10.183,10.183,0,0,0-5.448-3.632,75.294,75.294,0,0,0-16.948-2.875c-4.943-.354-5.2-.3-4.994.6" transform="translate(-1252.298 -388.332)" fill="#fff"/>
  <path id="Path_774" data-name="Path 774" d="M1423.955,443.926a24.03,24.03,0,0,1-2.068,3.682c-1.413,1.765-5.3,4.489-7.011,4.893-1.312.253-1.312.353-1.312,4.439,0,3.178-.252,4.691-1.109,6.507a16.085,16.085,0,0,1-7.97,7.515c-1.513.605-2.623,1.311-2.471,1.564a15.583,15.583,0,0,1,.252,3.682,14.716,14.716,0,0,1-4.539,10.744l-2.018,1.967,16.191.354c8.928.2,16.393.453,16.645.6.2.152,5.7,7.263,12.257,15.838,10.793,14.224,12,15.636,13.618,15.939a13.381,13.381,0,0,0,3.481,0c1.513-.3,1.815-.655,2.572-2.723,2.573-7.466.757-32.484-3.53-49.331-3.733-14.627-8.071-22.4-13.922-24.867-2.572-1.109-12.862-3.076-16.141-3.076-1.816,0-1.967.151-2.925,2.269m11.8,10.088c2.623,2.572.807,7.313-2.774,7.313-2.018,0-4.54-2.37-4.54-4.287a4.791,4.791,0,0,1,1.463-2.824c1.917-1.867,4.135-1.967,5.851-.2m-9.13,8.928a4.065,4.065,0,0,1,.051,6.2,4.121,4.121,0,0,1-7.011-3.026,4.185,4.185,0,0,1,6.961-3.178m18.209.152c2.623,2.572.806,7.313-2.774,7.313-1.968,0-4.54-2.371-4.54-4.186a5.649,5.649,0,0,1,1.311-2.825,3.827,3.827,0,0,1,6-.3m-9.13,8.877c2.875,2.27.958,7.515-2.724,7.515-1.968,0-4.54-2.371-4.54-4.187a5.655,5.655,0,0,1,1.312-2.824,4.048,4.048,0,0,1,5.952-.5" transform="translate(-1236.956 -390.713)" fill="#fff"/>
  <path id="Path_775" data-name="Path 775" d="M1268.407,443.207c-11.046,1.513-14.425,3.077-17.905,8.323-7.163,10.794-12.055,33.341-12.106,55.736,0,10.038.454,13.518,1.967,14.476.706.454,4.287.454,5.448,0,.454-.2,6.2-7.415,12.761-16.04l11.9-15.687,10.188-.3c5.6-.2,12.963-.353,16.393-.353h6.153l-2.068-1.866c-3.379-3.027-4.691-6.2-4.792-11.248-.05-4.136-.05-4.237-1.361-4.59-3.128-.857-6.961-4.136-8.676-7.515a16.269,16.269,0,0,1-1.312-8.726l.4-2.169-2.371-.857a15.633,15.633,0,0,1-8.02-7.364,8.886,8.886,0,0,0-1.513-2.522c-.151.051-2.471.353-5.095.706m3.43,11.45c.353.353.6,1.967.6,3.783v3.177h2.926c4.338,0,5.145.757,5.145,4.893,0,4.489-.656,5.195-4.893,5.195h-3.178v3.178c0,1.816-.252,3.43-.6,3.783s-2.068.6-4.187.6-3.833-.252-4.187-.6-.6-1.967-.6-3.783v-3.178h-3.127c-4.187,0-4.943-.706-4.943-4.741,0-4.54.706-5.347,4.842-5.347h3.228V458.44c0-1.816.252-3.43.6-3.783.807-.807,7.566-.807,8.373,0" transform="translate(-1182.843 -391.003)" fill="#fff"/>
  <path id="Path_776" data-name="Path 776" d="M1321.788,453.092a9.2,9.2,0,0,0-2.068,13.82c1.715,2.018,3.934,2.926,7.162,2.926,8.877,0,12.408-11,5.245-16.494a7.914,7.914,0,0,0-4.943-1.564c-2.724-.151-3.329,0-5.4,1.311" transform="translate(-1210.045 -394.179)" fill="#fff"/>
  <path id="Path_777" data-name="Path 777" d="M1356.478,453.092a8.681,8.681,0,0,0-4.136,8.07c.051,4.994,3.884,8.676,9.13,8.676a8.171,8.171,0,0,0,6.759-2.875,9.133,9.133,0,0,0-1.412-13.618,7.911,7.911,0,0,0-4.943-1.564c-2.724-.151-3.329,0-5.4,1.311" transform="translate(-1222.039 -394.179)" fill="#fff"/>
  <path id="Path_778" data-name="Path 778" d="M1391.079,453.092a8.68,8.68,0,0,0-4.136,8.07c.05,4.994,3.884,8.676,9.13,8.676a8.171,8.171,0,0,0,6.759-2.875,9.134,9.134,0,0,0-1.412-13.618,7.914,7.914,0,0,0-4.943-1.564c-2.724-.151-3.329,0-5.4,1.311" transform="translate(-1233.941 -394.179)" fill="#fff"/>
  <path id="Path_779" data-name="Path 779" d="M1340.45,480.94a11.687,11.687,0,0,0-2.673,1.614c-2.522,2.27-3.581,7.214-2.32,10.542a9.293,9.293,0,0,0,9.331,5.6,8.71,8.71,0,0,0,7.515-5.144c1.513-2.976,1.564-4.893.3-7.616a9.343,9.343,0,0,0-12.156-4.994" transform="translate(-1216.047 -403.969)" fill="#fff"/>
  <path id="Path_780" data-name="Path 780" d="M1375.074,480.94c-3.884,1.664-5.75,4.943-5.448,9.331a9.085,9.085,0,0,0,17.3,3.279c1.513-2.976,1.563-4.893.3-7.616a9.343,9.343,0,0,0-12.156-4.994" transform="translate(-1227.974 -403.969)" fill="#fff"/>
  <path id="Path_781" data-name="Path 781" d="M1358.647,509.206c-3.884,1.665-5.751,4.943-5.448,9.331a9.085,9.085,0,0,0,17.3,3.279c1.513-2.976,1.564-4.893.3-7.616a9.344,9.344,0,0,0-12.156-4.994" transform="translate(-1222.323 -413.692)" fill="#fff"/>
  <path id="Path_782" data-name="Path 782" d="M1517.828,547.126c-2.976,1.614-3.884,3.985-4.59,11.7-.3,3.732-.655,6.859-.756,6.96-.051.1-.656-.151-1.311-.6-2.169-1.412-7.465-2.472-10.9-2.169-9.432.907-16.343,8.272-19.066,20.276-.3,1.412-.353,1.311-1.008-1.412-2.875-12.206-14.073-20.478-25.271-18.612a23.258,23.258,0,0,0-18.511,16.7,32.65,32.65,0,0,0,.2,15.283c4.287,13.922,18.763,20.327,31.777,14.073,5.4-2.572,10.29-9.029,11.8-15.485l.655-2.976.606,2.825c1.463,6.911,5.851,12.912,11.55,15.687a15.1,15.1,0,0,0,7.516,1.866c3.581.151,4.489,0,6.91-1.11l2.774-1.261.908,1.009a7.958,7.958,0,0,0,9.735,1.261c3.38-2.27,3.329-1.967,5.852-29.91,1.26-14.123,2.169-26.733,2.068-27.994a7.373,7.373,0,0,0-10.946-6.1M1461.184,578.5c3.632,2.169,5.346,9.634,3.279,14.274-2.522,5.7-9.382,5.851-12.207.3-4.388-8.524,1.967-18.864,8.928-14.577m45.951,0c3.228,2.017,4.438,7.213,2.875,12.408-2.27,7.314-9.331,8.474-12.71,2.018a11.715,11.715,0,0,1-.857-4.843c-.1-7.667,5.548-12.71,10.693-9.583" transform="translate(-1250.681 -426.676)" fill="#fff"/>
  <path id="Path_783" data-name="Path 783" d="M1175.927,550.86a19.454,19.454,0,0,0-9.029,4.388,8.6,8.6,0,0,0-3.43,7.213c0,4.641,2.421,7.314,6.607,7.314,1.462,0,2.824-.555,5.448-2.27,3.934-2.623,6.254-2.926,8.474-1.211,1.412,1.11,1.614,2.22.706,4.187-.655,1.513-1.009,1.615-5.75,2.068a15.416,15.416,0,0,0-5.095,1.261c-3.077,1.866-4.237,7.313-2.017,9.836a19.35,19.35,0,0,0,4.64,3.178c4.035,2.118,5.095,3.581,4.59,6.254a5.073,5.073,0,0,1-5.4,4.439c-3.228,0-5.6-1.967-6.81-5.7-1.815-5.6-3.278-6.911-7.616-6.911a7.583,7.583,0,0,0-6.557,3.379c-1.463,2.22-1.261,7.718.454,11.4,5.3,11.349,20.478,16.292,31.827,10.29a17.829,17.829,0,0,0,9.735-12.458c.454-2.118.656-2.522.958-1.765.2.555,1.11,2.673,2.118,4.691,4.59,9.684,14.729,14.678,24.11,11.954,3.228-.908,7.011-3.228,7.818-4.792.5-.958.555-.958,2.169,0a8.123,8.123,0,0,0,9.634-1.463l1.009-1.059,1.513,1.463c3.834,3.682,8.878,3.278,11.954-.958.555-.706,2.068-6.255,3.632-12.963,2.925-12.711,3.48-13.972,6.658-14.577,3.178-.555,6.809,2.169,6.809,5.145,0,.454-1.11,5.7-2.522,11.652-1.362,5.952-2.522,11.651-2.522,12.66a7.141,7.141,0,0,0,4.035,6.506c2.774,1.412,4.136,1.463,6.86.152,2.824-1.412,3.833-3.581,6.052-13.114.958-4.287,1.816-7.868,1.917-7.919a13.753,13.753,0,0,1,1.311,3.43c3.077,9.533,11.147,16.444,19.873,17,4.994.3,8.322-.554,12.207-3.228,1.765-1.211,3.278-2.018,3.379-1.817s.857,2.27,1.614,4.641c2.674,8.272,4.338,10.088,9.079,10.088,4.641,0,7.567-2.825,7.515-7.263-.1-3.833-16.191-50.238-18.158-52.306-3.581-3.732-9.836-2.572-12.559,2.22-.454.807-.807.857-3.127.353a16.74,16.74,0,0,0-10.542,1.614c-2.824,1.311-7.162,5.4-8.373,7.919l-.807,1.715-1.261-2.522c-3.48-6.859-13.215-11.2-20.832-9.281-2.27.6-2.421.555-3.43-.606-1.513-1.816-3.127-2.471-5.952-2.522-2.673-.051-4.489.958-6.2,3.531-.656.958-2.219,6.557-4.237,15.334-3.581,15.687-3.581,15.737-3.884,15.435-.151-.151-1.816-6.961-3.733-15.183-3.733-16.141-4.489-18.057-7.465-19.318a7.3,7.3,0,0,0-8.424,2.068c-2.068,2.118-2.068,2.118-3.783,1.412a16.53,16.53,0,0,0-5.044-.707,18.531,18.531,0,0,0-14.829,7.616c-1.463,2.068-2.37,2.522-1.362.656,1.059-2.018,1.21-6.356.3-9.432-1.967-6.91-7.415-11.6-15.283-13.316-3.329-.706-5.044-.656-8.978.2m21.992,28.2a34.879,34.879,0,0,0-1.261,6.153l-.4,3.38-.908-1.917a15.061,15.061,0,0,0-1.715-2.774,3.054,3.054,0,0,1-.757-1.16c0-.2,5.448-6.053,5.9-6.355a18.891,18.891,0,0,1-.857,2.673m22.9.5c3.178,1.311,5.851,6.356,5.851,11,0,6.053-5.3,9.786-9.885,6.91-5.7-3.48-6.406-15.535-1.11-17.855a5.33,5.33,0,0,1,5.144-.05m93.768,1.412c2.421,1.715,4.136,6.053,4.136,10.34,0,4.338-1.009,6.052-4.136,7.162-1.917.706-2.169.656-4.489-.5-5.851-2.875-8.121-12.559-3.934-16.746a5.8,5.8,0,0,1,2.37-1.513,8.81,8.81,0,0,1,6.053,1.261" transform="translate(-1153.714 -428.039)" fill="#fff"/>
</svg>
