<svg xmlns="http://www.w3.org/2000/svg" width="201.272" height="237.263" viewBox="0 0 201.272 237.263">
  <g id="Crown" transform="translate(67.066 -19.989) rotate(22)" opacity="0.82">
    <g id="Group_15" data-name="Group 15" transform="translate(0 0)">
      <path id="Path_64" data-name="Path 64" d="M19.024,7.986C18.951,6.543,17.468-.371,9.755.016A10.5,10.5,0,0,0,.01,10.443C.217,14.6,4.86,18.693,9.3,18.47,14.618,18.2,19.284,13.17,19.024,7.986Z" transform="translate(119.057 47.226)" fill="#77a7ff"/>
      <path id="Path_65" data-name="Path 65" d="M23.2,9.62A10.338,10.338,0,0,0,12.3.013C5.574.35-.3,7.269.012,13.441c.341,6.775,7.321,9.686,11.142,9.495C17.44,22.619,23.523,16.1,23.2,9.62Z" transform="translate(53.359 0)" fill="#77a7ff"/>
      <path id="Path_66" data-name="Path 66" d="M8.59,61.877C4.23,62.1-.092,66.754,0,71.322c1.6,79.287,1.6,78.948,7.918,78.632,7.465-.376,7.426-3.675,7.469-59.18,24.01,26.964,25.4,34.315,30.694,34.051,15.61-.783,6.768-19.076,16.759-87.867,9.725,22.76,20.6,44.795,30.635,67.182,2.544,5.674,10.168,4.413,13.769-.485,9.263-12.622,10.159-27.417,12.549-41.5,19.991,79.931,21.4,80.291,27.358,79.993,4.793-.239,9.568-5.655,9.317-10.655-.517-10.3-23.53-89.248-26.677-100.723a6.685,6.685,0,0,0-7.076-5.141c-15.07.756-17.59,39.959-20.9,52.922C67.862.475,66.615-.239,61.4.022c-8.116.405-12.217,7.9-20.328,92.931C11.626,58.37,9.273,61.843,8.59,61.877Z" transform="translate(12.227 59.301)" fill="#77a7ff"/>
      <path id="Path_67" data-name="Path 67" d="M9.778.016C4.031.3-.231,5.641.01,10.441c.207,4.162,4.875,8.25,9.3,8.027,5.3-.266,9.977-5.287,9.715-10.489C18.956,6.533,17.479-.369,9.778.016Z" transform="translate(0 80.332)" fill="#77a7ff"/>
    </g>
  </g>
</svg>
