<svg id="Layer_2" data-name="Layer 2" xmlns="http://www.w3.org/2000/svg" width="196.237" height="70.113" viewBox="0 0 196.237 70.113">
  <g id="Layer_1-2" data-name="Layer 1-2">
    <g id="Layer_2-2" data-name="Layer 2-2">
      <g id="Layer_1-2-2" data-name="Layer 1-2-2">
        <path id="Path_823" data-name="Path 823" d="M30.354,0,0,17.531V52.587L30.354,70.113,60.7,52.587V17.531ZM28.94,65.635,3.131,50.766V19.347L28.94,4.483ZM57.551,50.766,31.768,65.635V4.483l25.782,14.89Z" fill="#fff"/>
        <path id="Path_824" data-name="Path 824" d="M32.155,45.992l-.031,23.637L12.14,58.027l.052-.078H12.14V30.711h.052L32.124,19.14V28.3L18.873,35.961V52.808l6.493,3.758V45.992Z" transform="translate(-5.804 -9.151)" fill="#fff"/>
        <path id="Path_825" data-name="Path 825" d="M86.275,49.236v7.975L65.67,69.194V18l7.547,4.76.078,33.4Z" transform="translate(-31.396 -8.606)" fill="#fff"/>
        <path id="Path_826" data-name="Path 826" d="M145.124,77.59H141.81V97.981h14.227V94.954H145.124Z" transform="translate(-67.798 -37.095)" fill="#fff"/>
        <path id="Path_827" data-name="Path 827" d="M178.884,89.4H190.3V86.369H178.884V80.863h11.889V77.69h-15.2V98.081h15.292v-3.2H178.884Z" transform="translate(-83.939 -37.143)" fill="#fff"/>
        <path id="Path_828" data-name="Path 828" d="M219.593,88.286h5.783v4.139a7.7,7.7,0,0,1-5.062,1.806A7.309,7.309,0,0,1,214.6,92.1a7.512,7.512,0,0,1-1.921-5.219,7.935,7.935,0,0,1,2.041-5.621,7.208,7.208,0,0,1,5.59-2.276,8.659,8.659,0,0,1,2.975.574,7.309,7.309,0,0,1,2.61,1.618l2.088-2.088a10.568,10.568,0,0,0-7.682-3.131,10.34,10.34,0,0,0-7.985,3.131,10.993,10.993,0,0,0-2.9,7.761,11.507,11.507,0,0,0,.652,3.92,10.111,10.111,0,0,0,1.926,3.293,8.58,8.58,0,0,0,3.413,2.328,12.964,12.964,0,0,0,4.9.861,10.626,10.626,0,0,0,8.137-3.549v-8.33h-8.872Z" transform="translate(-100.118 -36.315)" fill="#fff"/>
        <path id="Path_829" data-name="Path 829" d="M258.56,77.81,249.27,98.2h3.512l1.952-4.28h11.211l1.983,4.28h3.518L262.177,77.81Zm-2.573,13.147,4.379-9.7,4.379,9.7Z" transform="translate(-119.174 -37.2)" fill="#fff"/>
        <path id="Path_830" data-name="Path 830" d="M307.662,93.959a8.1,8.1,0,0,1-2.959.579,7.191,7.191,0,0,1-5.678-2.166,7.777,7.777,0,0,1-1.952-5.261,7.648,7.648,0,0,1,1.952-5.329,7.154,7.154,0,0,1,5.678-2.244,7.364,7.364,0,0,1,5.355,2.088l2.223-2.088a10.438,10.438,0,0,0-7.578-3.09,12.241,12.241,0,0,0-4.807.9,9.021,9.021,0,0,0-3.445,2.432,11.048,11.048,0,0,0-1.983,3.408,11.582,11.582,0,0,0-.678,3.951,11.306,11.306,0,0,0,.663,3.9,10.441,10.441,0,0,0,1.968,3.319,8.981,8.981,0,0,0,3.434,2.359,12.643,12.643,0,0,0,4.848.887,10.7,10.7,0,0,0,7.782-3.032l-2.276-2.244A7.6,7.6,0,0,1,307.662,93.959Z" transform="translate(-140.459 -36.549)" fill="#fff"/>
        <path id="Path_831" data-name="Path 831" d="M340.39,86.813l-5.7-9H330.75v.146l7.985,11.884v8.366h3.314V89.84l8.225-11.884V77.81h-4Z" transform="translate(-158.13 -37.2)" fill="#fff"/>
        <path id="Path_832" data-name="Path 832" d="M146.1,20.2a8.594,8.594,0,0,1,5.991,2.505l2.14-2.051A11.885,11.885,0,0,0,146.1,17.4a10.9,10.9,0,0,0-10.8,10.7,10.918,10.918,0,0,0,10.8,10.725,12,12,0,0,0,8.131-3.251V27.316h-8.57v2.651h5.543V34.3a8.826,8.826,0,0,1-5.1,1.717,7.914,7.914,0,0,1,0-15.819Z" transform="translate(-64.686 -8.319)" fill="#fff"/>
        <path id="Path_833" data-name="Path 833" d="M198.142,38.8,189.27,18.1h-3.4L177,38.8h3.377l1.806-4.217H192.97l1.811,4.217Zm-14.8-6.962,4.222-9.822,4.217,9.822Z" transform="translate(-84.623 -8.653)" fill="#fff"/>
        <path id="Path_834" data-name="Path 834" d="M227.083,24.065l7.26,13.528,7.265-13.528V38.8h3.043V18.1h-3.043l-7.265,13.528L227.083,18.1H224.04V38.8h3.043Z" transform="translate(-107.112 -8.653)" fill="#fff"/>
        <path id="Path_835" data-name="Path 835" d="M312.413,31.636h4.76l5.052,7.2h3.5l-5.271-7.505a6.64,6.64,0,0,0,5.3-6.446c0-3.946-3.314-6.748-7.682-6.748h-8.7V38.818h3.043Zm0-10.668h5.245c2.98,0,5,1.477,5,3.92s-2.02,3.914-5,3.914h-5.245Z" transform="translate(-147.908 -8.673)" fill="#fff"/>
        <path id="Path_836" data-name="Path 836" d="M354.341,26.585c-3.4-.814-5.183-1.477-5.183-3.4,0-1.66,1.628-3.131,3.946-3.131a8.914,8.914,0,0,1,5.939,2.531l1.738-2.26a10.958,10.958,0,0,0-7.568-2.923c-4.175,0-7.171,2.61-7.171,6.085,0,3.737,2.8,5,7.025,6,3.465.783,5.183,1.534,5.183,3.5,0,1.654-1.477,3.163-4.342,3.163A9.588,9.588,0,0,1,347.1,33.25l-1.837,2.26a11.968,11.968,0,0,0,8.528,3.314c4.906,0,7.515-2.651,7.515-6.148C361.335,28.944,358.469,27.556,354.341,26.585Z" transform="translate(-165.067 -8.318)" fill="#fff"/>
        <rect id="Rectangle_109" data-name="Rectangle 109" width="15.193" height="2.834" transform="translate(142.444 27.311)" fill="#fff"/>
        <rect id="Rectangle_110" data-name="Rectangle 110" width="15.193" height="2.834" transform="translate(142.345 18.147)" fill="#fff"/>
        <rect id="Rectangle_111" data-name="Rectangle 111" width="15.193" height="2.834" transform="translate(142.345 9.373)" fill="#fff"/>
      </g>
    </g>
  </g>
</svg>
