<svg id="IBS" xmlns="http://www.w3.org/2000/svg" width="263.539" height="129.987" viewBox="0 0 263.539 129.987">
  <g id="Group_52" data-name="Group 52" transform="translate(24.269 0)">
    <path id="Path_784" data-name="Path 784" d="M1166.854,463.3h11.878a2.377,2.377,0,0,1,2.39,2.353V549.9a2.354,2.354,0,0,1-2.39,2.353h-11.878a2.377,2.377,0,0,1-2.39-2.353V465.7a2.385,2.385,0,0,1,2.39-2.39Z" transform="translate(-1164.465 -443.007)" fill="#fff"/>
    <path id="Path_785" data-name="Path 785" d="M1454.731,544.165h-73.212c-6.177.772-5.368,14.23,0,14.451h77.514c10.479-.956,17.466-7.354,20.923-19.3V528.132c-.368-7.612-7.8-15.37-13.679-15.223h-66.52c-8.31-1.029-8.568-16.768,0-17.246h40.228c10.185-.515,10.185-13.715,0-14.708h-45.6c-19.305,0-20.371,45.927,0,45.707h60.084c12.061.735,13.679,16.473.257,17.5Z" transform="translate(-1240.686 -449.331)" fill="#fff"/>
    <path id="Path_786" data-name="Path 786" d="M1218.012,477.2l-.037,38.756c.184,5.957,5.515,9.487,8.825,9.487h58.65c4.964-.11,8.972-5.626,8.972-9.12V486.168c-.441-4.523-4.3-9.009-9.487-8.972Zm-.184-43.207V464.8c1.545-.809,3.971-1.213,7.281-1.177l61.739.11c15.481.4,23.717,9.671,24.232,24.012v29.123c-.589,15.223-9.082,23.938-24.38,24.379h-62.18a24.651,24.651,0,0,1-24.012-23.534V434.541a2.63,2.63,0,0,1,2.868-2.868h12.172a2.276,2.276,0,0,1,2.279,2.316Z" transform="translate(-1177.38 -431.673)" fill="#fff"/>
  </g>
  <g id="Group_53" data-name="Group 53" transform="translate(24.159 114.101)">
    <path id="Path_787" data-name="Path 787" d="M1165.286,609.488c.735,0,.993.257.993.956s-.257.956-.993.956-.993-.221-.993-.956C1164.293,609.745,1164.55,609.488,1165.286,609.488Zm-.772,12.282v-8.862h1.544v8.862Z" transform="translate(-1164.293 -609.488)" fill="#fff"/>
    <path id="Path_788" data-name="Path 788" d="M1172.166,615.8a3.363,3.363,0,0,1,3.015-1.324c2.059,0,3.052.919,3.052,3.273v5.81h-1.545v-5.406c0-1.728-.184-2.39-1.912-2.39-1.434,0-2.464.441-2.464,2.979v4.817h-1.545v-8.862h1.434C1172.166,614.731,1172.166,615.8,1172.166,615.8Z" transform="translate(-1166.613 -611.275)" fill="#fff"/>
    <path id="Path_789" data-name="Path 789" d="M1187.373,620.543c0,.588.22.662.919.662a4.883,4.883,0,0,0,.589-.073v1.25a7.088,7.088,0,0,1-1.25.11c-1.471,0-1.839-.515-1.839-1.985v-5.773h-1.213v-1.251h1.213v-2.39h1.545v2.39h1.508v1.251h-1.508C1187.373,614.77,1187.373,620.543,1187.373,620.543Z" transform="translate(-1171.561 -610.063)" fill="#fff"/>
    <path id="Path_790" data-name="Path 790" d="M1199.731,620.835h1.581c-.147,1.361-.882,2.942-4.045,2.942-3.088,0-4.265-1.508-4.265-4.487,0-3.052,1.177-4.816,4.339-4.816,3.015,0,4.045,1.654,4.045,5.111h-5.516v-1.25h3.934c-.11-1.581-.515-2.574-2.463-2.574s-2.684.7-2.684,3.457c0,2.427.662,3.273,2.758,3.273C1198.812,622.49,1199.547,622.122,1199.731,620.835Z" transform="translate(-1174.58 -611.275)" fill="#fff"/>
    <path id="Path_791" data-name="Path 791" d="M1210.653,615.818a2.466,2.466,0,0,1,2.354-1.287,2.78,2.78,0,0,1,.7.074v1.544a2.631,2.631,0,0,0-.846-.11c-1.507,0-2.1.809-2.1,2.537v4.965h-1.545v-8.862h1.434v1.14Z" transform="translate(-1180.391 -611.295)" fill="#fff"/>
    <path id="Path_792" data-name="Path 792" d="M1219.671,615.8a3.363,3.363,0,0,1,3.015-1.324c2.059,0,3.052.919,3.052,3.273v5.81h-1.545v-5.406c0-1.728-.183-2.39-1.911-2.39-1.434,0-2.464.441-2.464,2.979v4.817h-1.545v-8.862h1.434v1.1Z" transform="translate(-1183.635 -611.275)" fill="#fff"/>
    <path id="Path_793" data-name="Path 793" d="M1239.272,617.305c0-1.029-.33-1.581-2.1-1.581-1.876,0-2.023.588-2.243,1.618h-1.544c.184-2.206,1.36-2.868,3.861-2.868,2.059,0,3.6.441,3.6,2.463v6.619h-1.544V622.6a4.361,4.361,0,0,1-3.236,1.177c-1.986,0-3.015-.773-3.015-2.39,0-1.177.515-2.574,2.831-2.868l2.169-.257v1.214l-1.4.184c-1.434.184-1.986.551-1.986,1.544,0,1.03.588,1.324,1.8,1.324,1.765,0,2.832-.662,2.832-2.28l-.037-2.941Z" transform="translate(-1188.933 -611.275)" fill="#fff"/>
    <path id="Path_794" data-name="Path 794" d="M1250.236,620.543c0,.588.221.662.919.662a4.883,4.883,0,0,0,.589-.073v1.25a7.087,7.087,0,0,1-1.25.11c-1.471,0-1.839-.515-1.839-1.985v-5.773h-1.214v-1.251h1.214v-2.39h1.544v2.39h1.508v1.251h-1.471Z" transform="translate(-1194.086 -610.063)" fill="#fff"/>
    <path id="Path_795" data-name="Path 795" d="M1257.2,609.488c.735,0,.993.257.993.956s-.257.956-.993.956-.993-.221-.993-.956C1256.245,609.745,1256.466,609.488,1257.2,609.488Zm-.772,12.282v-8.862h1.544v8.862Z" transform="translate(-1197.228 -609.488)" fill="#fff"/>
    <path id="Path_796" data-name="Path 796" d="M1266.09,614.474c3.2,0,4.3,1.949,4.3,4.669,0,2.832-1.177,4.634-4.3,4.634-3.2,0-4.265-1.839-4.265-4.634C1261.825,616.312,1262.965,614.474,1266.09,614.474Zm.037,8.016c1.986,0,2.684-1.14,2.684-3.346,0-2.169-.662-3.346-2.684-3.346s-2.684,1.14-2.684,3.346C1263.443,621.313,1264.068,622.49,1266.127,622.49Z" transform="translate(-1199.24 -611.275)" fill="#fff"/>
    <path id="Path_797" data-name="Path 797" d="M1279.439,615.8a3.364,3.364,0,0,1,3.015-1.324c2.059,0,3.052.919,3.052,3.273v5.81h-1.545v-5.406c0-1.728-.184-2.39-1.912-2.39-1.434,0-2.463.441-2.463,2.979v4.817h-1.545v-8.862h1.434v1.1Z" transform="translate(-1205.051 -611.275)" fill="#fff"/>
    <path id="Path_798" data-name="Path 798" d="M1299.041,617.305c0-1.029-.331-1.581-2.1-1.581-1.875,0-2.022.588-2.243,1.618h-1.544c.184-2.206,1.36-2.868,3.861-2.868,2.059,0,3.6.441,3.6,2.463v6.619h-1.544V622.6a4.36,4.36,0,0,1-3.236,1.177c-1.985,0-3.015-.773-3.015-2.39,0-1.177.515-2.574,2.832-2.868l2.17-.257v1.214l-1.4.184c-1.434.184-1.985.551-1.985,1.544,0,1.03.589,1.324,1.8,1.324,1.765,0,2.831-.662,2.831-2.28l-.037-2.941Z" transform="translate(-1210.348 -611.275)" fill="#fff"/>
    <path id="Path_799" data-name="Path 799" d="M1310.244,621.831H1308.7V609.66h1.544Z" transform="translate(-1216.036 -609.549)" fill="#fff"/>
    <path id="Path_800" data-name="Path 800" d="M1328.752,617.345c0-2.023-.441-3.31-2.427-3.31a2.868,2.868,0,0,0-1.214.221v-1.287a4.2,4.2,0,0,1,1.434-.22c2.721,0,3.861,1.581,3.861,4.486,0,2.648-.92,4.817-4.008,4.817a2.741,2.741,0,0,1-2.537-1.14v.92h-1.581V609.66h1.544v7.8c0,2.61.662,3.309,2.317,3.309C1328.164,620.765,1328.752,619.735,1328.752,617.345Z" transform="translate(-1220.903 -609.549)" fill="#fff"/>
    <path id="Path_801" data-name="Path 801" d="M1343.694,614.875h1.544v8.862H1343.8v-1.1a3.219,3.219,0,0,1-3.015,1.324c-1.765,0-2.942-.515-2.979-2.721v-6.361h1.544v5.773c0,1.618.478,1.985,1.728,1.985,1.949,0,2.611-.92,2.611-2.941v-4.817Z" transform="translate(-1226.467 -611.418)" fill="#fff"/>
    <path id="Path_802" data-name="Path 802" d="M1357.909,617.179c-.074-1.066-.4-1.4-1.985-1.4-1.067,0-1.912.147-1.912,1.14,0,.735.441.993,1.544,1.287l1.507.368c1.8.441,2.758.956,2.758,2.537,0,1.839-1.287,2.721-3.861,2.721-3.126,0-3.64-1.324-3.824-2.979h1.544c.11,1.324.478,1.691,2.28,1.691,1.287,0,2.206-.183,2.206-1.25,0-.662-.4-1.066-1.618-1.36l-1.618-.4c-1.875-.478-2.574-1.1-2.574-2.427,0-1.875,1.434-2.574,3.567-2.574,3.015,0,3.42,1.434,3.53,2.684l-1.545-.037Z" transform="translate(-1231.6 -611.295)" fill="#fff"/>
    <path id="Path_803" data-name="Path 803" d="M1367.57,609.488c.735,0,.993.257.993.956s-.257.956-.993.956-.993-.221-.993-.956C1366.577,609.745,1366.834,609.488,1367.57,609.488Zm-.772,12.282v-8.862h1.545v8.862Z" transform="translate(-1236.775 -609.488)" fill="#fff"/>
    <path id="Path_804" data-name="Path 804" d="M1374.45,615.8a3.363,3.363,0,0,1,3.015-1.324c2.059,0,3.052.919,3.052,3.273v5.81h-1.545v-5.406c0-1.728-.183-2.39-1.912-2.39-1.433,0-2.463.441-2.463,2.979v4.817h-1.545v-8.862h1.434v1.1Z" transform="translate(-1239.095 -611.275)" fill="#fff"/>
    <path id="Path_805" data-name="Path 805" d="M1394.337,620.835h1.581c-.147,1.361-.882,2.942-4.045,2.942-3.089,0-4.265-1.508-4.265-4.487,0-3.052,1.176-4.816,4.339-4.816,3.015,0,4.044,1.654,4.044,5.111h-5.516v-1.25h3.935c-.11-1.581-.515-2.574-2.463-2.574s-2.685.7-2.685,3.457c0,2.427.662,3.273,2.758,3.273C1393.418,622.49,1394.19,622.122,1394.337,620.835Z" transform="translate(-1244.31 -611.275)" fill="#fff"/>
    <path id="Path_806" data-name="Path 806" d="M1408.452,617.179c-.073-1.066-.4-1.4-1.985-1.4-1.067,0-1.912.147-1.912,1.14,0,.735.442.993,1.545,1.287l1.507.368c1.8.441,2.758.956,2.758,2.537,0,1.839-1.287,2.721-3.861,2.721-3.126,0-3.64-1.324-3.824-2.979h1.544c.11,1.324.478,1.691,2.28,1.691,1.287,0,2.207-.183,2.207-1.25,0-.662-.4-1.066-1.618-1.36l-1.618-.4c-1.876-.478-2.574-1.1-2.574-2.427,0-1.875,1.434-2.574,3.567-2.574,3.015,0,3.42,1.434,3.53,2.684l-1.545-.037Z" transform="translate(-1249.711 -611.295)" fill="#fff"/>
    <path id="Path_807" data-name="Path 807" d="M1422.262,617.179c-.074-1.066-.4-1.4-1.986-1.4-1.066,0-1.911.147-1.911,1.14,0,.735.441.993,1.544,1.287l1.508.368c1.8.441,2.758.956,2.758,2.537,0,1.839-1.287,2.721-3.861,2.721-3.126,0-3.64-1.324-3.824-2.979h1.544c.11,1.324.478,1.691,2.28,1.691,1.287,0,2.206-.183,2.206-1.25,0-.662-.4-1.066-1.618-1.36l-1.618-.4c-1.875-.478-2.574-1.1-2.574-2.427,0-1.875,1.434-2.574,3.566-2.574,3.015,0,3.42,1.434,3.531,2.684l-1.545-.037Z" transform="translate(-1254.659 -611.295)" fill="#fff"/>
    <path id="Path_808" data-name="Path 808" d="M1443.694,617.179c-.074-1.066-.4-1.4-1.986-1.4-1.066,0-1.912.147-1.912,1.14,0,.735.442.993,1.545,1.287l1.508.368c1.8.441,2.757.956,2.757,2.537,0,1.839-1.287,2.721-3.861,2.721-3.125,0-3.64-1.324-3.824-2.979h1.545c.11,1.324.478,1.691,2.279,1.691,1.287,0,2.207-.183,2.207-1.25,0-.662-.4-1.066-1.618-1.36l-1.618-.4c-1.876-.478-2.574-1.1-2.574-2.427,0-1.875,1.434-2.574,3.567-2.574,3.015,0,3.42,1.434,3.53,2.684l-1.544-.037Z" transform="translate(-1262.338 -611.295)" fill="#fff"/>
    <path id="Path_809" data-name="Path 809" d="M1455.967,623.663c-1.1,2.906-1.508,3.641-3.273,3.641a4.67,4.67,0,0,1-.92-.074v-1.4a3.378,3.378,0,0,0,.882.11c.846,0,1.067-.368,1.729-2.059a60.3,60.3,0,0,1-3.457-9.009h1.765a42.947,42.947,0,0,0,2.5,7.207l2.537-7.207h1.655Z" transform="translate(-1266.999 -611.418)" fill="#fff"/>
    <path id="Path_810" data-name="Path 810" d="M1470.741,617.179c-.073-1.066-.4-1.4-1.985-1.4-1.067,0-1.912.147-1.912,1.14,0,.735.441.993,1.545,1.287l1.507.368c1.8.441,2.758.956,2.758,2.537,0,1.839-1.287,2.721-3.861,2.721-3.126,0-3.64-1.324-3.824-2.979h1.545c.11,1.324.478,1.691,2.28,1.691,1.287,0,2.206-.183,2.206-1.25,0-.662-.4-1.066-1.618-1.36l-1.618-.4c-1.876-.478-2.574-1.1-2.574-2.427,0-1.875,1.434-2.574,3.567-2.574,3.015,0,3.419,1.434,3.53,2.684l-1.544-.037Z" transform="translate(-1272.03 -611.295)" fill="#fff"/>
    <path id="Path_811" data-name="Path 811" d="M1481.057,620.543c0,.588.221.662.92.662a4.9,4.9,0,0,0,.588-.073v1.25a7.093,7.093,0,0,1-1.25.11c-1.471,0-1.839-.515-1.839-1.985v-5.773h-1.213v-1.251h1.213v-2.39h1.545v2.39h1.507v1.251h-1.507l.036,5.81Z" transform="translate(-1276.794 -610.063)" fill="#fff"/>
    <path id="Path_812" data-name="Path 812" d="M1493.416,620.835H1495c-.147,1.361-.883,2.942-4.045,2.942-3.088,0-4.265-1.508-4.265-4.487,0-3.052,1.177-4.816,4.339-4.816,3.015,0,4.044,1.654,4.044,5.111h-5.515v-1.25h3.934c-.11-1.581-.515-2.574-2.463-2.574s-2.684.7-2.684,3.457c0,2.427.662,3.273,2.757,3.273C1492.46,622.49,1493.232,622.122,1493.416,620.835Z" transform="translate(-1279.812 -611.275)" fill="#fff"/>
    <path id="Path_813" data-name="Path 813" d="M1509.662,623.556h-1.545v-5.994c0-1.287-.331-1.8-1.581-1.8-1.324,0-2.317.552-2.317,3.052v4.743h-1.544v-8.862h1.434v1.1a3.269,3.269,0,0,1,2.831-1.324,2.429,2.429,0,0,1,2.463,1.324,3.3,3.3,0,0,1,2.832-1.324c1.728,0,2.831.662,2.831,2.978v6.1h-1.544v-5.663c0-1.581-.331-2.133-1.618-2.133-1.618,0-2.28.809-2.28,2.5l.037,5.3Z" transform="translate(-1285.541 -611.275)" fill="#fff"/>
    <path id="Path_814" data-name="Path 814" d="M1530.453,617.179c-.073-1.066-.4-1.4-1.985-1.4-1.066,0-1.912.147-1.912,1.14,0,.735.441.993,1.544,1.287l1.507.368c1.8.441,2.758.956,2.758,2.537,0,1.839-1.287,2.721-3.861,2.721-3.125,0-3.64-1.324-3.824-2.979h1.544c.11,1.324.478,1.691,2.28,1.691,1.287,0,2.206-.183,2.206-1.25,0-.662-.4-1.066-1.618-1.36l-1.618-.4c-1.876-.478-2.574-1.1-2.574-2.427,0-1.875,1.434-2.574,3.567-2.574,3.015,0,3.42,1.434,3.53,2.684l-1.545-.037Z" transform="translate(-1293.425 -611.295)" fill="#fff"/>
  </g>
  <g id="Group_54" data-name="Group 54" transform="translate(0 0)">
    <path id="Path_815" data-name="Path 815" d="M1126.644,439.983a8.3,8.3,0,0,0,8.31,8.31,8.969,8.969,0,0,0,3.273-.662,9.031,9.031,0,0,1,0-15.3,8.019,8.019,0,0,0-3.273-.662A8.325,8.325,0,0,0,1126.644,439.983Z" transform="translate(-1126.644 -431.673)" fill="#fff" opacity="0.35" style="isolation: isolate"/>
    <path id="Path_816" data-name="Path 816" d="M1143.757,432.664a8.363,8.363,0,0,0,0,14.782,8.445,8.445,0,0,0,3.861.956,8.968,8.968,0,0,0,3.273-.662,9.031,9.031,0,0,1,0-15.3,8,8,0,0,0-3.273-.662A7.221,7.221,0,0,0,1143.757,432.664Z" transform="translate(-1131.182 -431.708)" fill="#fff" opacity="0.55" style="isolation: isolate"/>
    <path id="Path_817" data-name="Path 817" d="M1156.364,432.664a8.363,8.363,0,0,0,0,14.782,8.445,8.445,0,0,0,3.861.956,8.968,8.968,0,0,0,3.273-.662,9.031,9.031,0,0,1,0-15.3,8,8,0,0,0-3.273-.662A7.221,7.221,0,0,0,1156.364,432.664Z" transform="translate(-1135.699 -431.708)" fill="#fff" opacity="0.75" style="isolation: isolate"/>
    <path id="Path_818" data-name="Path 818" d="M1172.833,431.673a8.009,8.009,0,0,0-3.861.956,8.363,8.363,0,0,0,0,14.782,8.445,8.445,0,0,0,3.861.956,8.347,8.347,0,0,0,0-16.694Z" transform="translate(-1140.216 -431.673)" fill="#fff"/>
  </g>
</svg>
