<?xml version="1.0" encoding="utf-8"?>
<!-- Generator: Adobe Illustrator 22.0.1, SVG Export Plug-In . SVG Version: 6.00 Build 0)  -->
<svg version="1.1" id="Layer_1" xmlns="http://www.w3.org/2000/svg" xmlns:xlink="http://www.w3.org/1999/xlink" x="0px" y="0px"
	 viewBox="0 0 189.4 84" style="enable-background:new 0 0 189.4 84;" xml:space="preserve">
<style type="text/css">
	.st0{enable-background:new    ;}
	.st1{fill:#8EB4FD;}
</style>
<g class="st0">
	<path class="st1" d="M35.6,14.3c-1.1,1.8-2.1,3.6-3.1,5.4c-0.4,0.7-0.8,1.4-1.3,2.1c-0.8,1.1-2,1.1-2.8-0.1
		c-0.3-0.5-0.5-1.1-0.6-1.6c-0.2-1.1-0.3-2.2-0.4-3.3c0-0.3-0.1-0.6-0.1-0.8c-0.1,0-0.1,0-0.2,0c-0.3,0.7-0.5,1.3-0.7,2
		c-0.8,2.1-1.6,4.2-2.4,6.3c0,0.1,0,0.1,0,0.2c-0.4,0.9-0.7,1-1.3,0.9c-0.7-0.2-1.3-0.9-1.2-1.6c0-0.2,0.1-0.5,0.2-0.7
		c1.6-4.4,3.2-8.8,4.8-13.2c0-0.1,0-0.1,0.1-0.2c0.4-1.1,1.2-1.3,2.1-0.5c0.4,0.4,0.6,0.8,0.6,1.4c0.1,0.6,0.1,1.2,0.2,1.9
		c0.2,1.8,0.3,3.6,0.5,5.4c0,0.2,0.1,0.3,0.2,0.6c0.3-0.5,0.5-0.9,0.8-1.3c1.4-2.5,2.7-4.9,4.4-7.2c0.3-0.4,0.6-0.9,1-1.3
		c0.6-0.6,1.3-0.7,2-0.1c0.5,0.4,0.8,1,0.8,1.6c0,1-0.1,1.9-0.2,2.9c-0.4,2.9-0.9,5.7-1.2,8.6c-0.2,1.8-0.5,3.6-0.5,5.4
		c0,0.9-0.6,1.3-1.5,0.8c-0.6-0.3-0.9-0.8-0.9-1.5c0-0.9,0-1.8,0.1-2.6c0.4-3.1,0.9-6.3,1.3-9.4c0-0.2,0.1-0.5,0.1-0.7
		c0,0-0.1,0-0.1-0.1C35.9,13.9,35.8,14.1,35.6,14.3z"/>
	<path class="st1" d="M41.7,24.1c-0.3,0-0.5,0.2-0.6,0.5c-0.5,0.8-1.1,1.7-1.6,2.6c-0.4,0.6-0.9,0.8-1.5,0.4
		c-0.8-0.5-1.1-1.3-0.6-2.2c0.3-0.4,0.5-0.9,0.8-1.3c0.3-0.4,0.6-0.8,0.5-1.5c-0.1-0.3,0.2-0.7,0.5-0.7c0.4,0,0.6-0.3,0.8-0.6
		c2.1-3.6,4.2-7.3,6.3-10.9c0.2-0.3,0.3-0.6,0.5-0.8C47.1,9,47.5,8.9,48,9.1c0.7,0.3,1.2,0.8,1.2,1.6c0.1,0.7,0,1.3-0.1,2
		c-0.2,2.3-0.5,4.7-0.7,7c-0.2,2.7-0.6,5.5-0.4,8.2c0,0.4,0,0.9-0.4,1.1c-0.5,0.3-0.9,0.1-1.3-0.2c-0.4-0.3-0.7-0.8-0.7-1.3
		c0-1.1,0-2.1,0-3.2c0-0.2,0-0.3,0-0.6C44.3,23.9,43,24,41.7,24.1z M45.8,21.4c0.2-1.9,0.4-3.7,0.5-5.5c-0.1,0-0.1,0-0.2,0
		c-1,1.8-2.1,3.7-3.2,5.6C44,21.5,44.9,21.4,45.8,21.4z"/>
	<path class="st1" d="M50.4,17c0-0.5,0.1-1,0.1-1.5c0-0.6,0.1-1.2-0.1-1.8c-0.1-0.2,0-0.7,0.1-0.9c0.2-0.3,0.3-0.6,0.3-1
		c0-0.4,0.1-0.8,0.5-0.9c0.4-0.2,0.9,0,1.2,0.2c0.5,0.4,1.1,0.7,1.7,0.8c3.6,0.8,5.9,3.7,5.9,7.4c0,2-0.8,3.8-2.2,5.3
		c-1.4,1.5-3,2.5-4.9,3.2c-0.6,0.2-1.3,0.4-1.8,0.9c-0.2,0.1-0.6,0.1-0.9,0c-0.8-0.3-1.2-1-1.1-1.9c0.1-0.6,0.2-1.1,0.3-1.7l0,0
		C49.8,22.4,50.1,19.7,50.4,17z M52.2,25.2c1.9-0.9,3.7-2.1,4.7-4c0.8-1.5,1-3.1,0.4-4.7c-0.5-1.4-2.1-2.4-3.6-2.4
		c-0.2,0-0.4,0.1-0.6,0.1c-0.4,3.7-0.7,7.3-1.1,10.9C52.1,25.1,52.2,25.2,52.2,25.2z"/>
	<path class="st1" d="M63.8,20.7c0.6,0.1,1,0.2,1.5,0.3c0.5,0.1,1.9,0.2,2.5,0.3c0.8,0.1,1.3,2.3-0.1,2.2c-1.1-0.1-2.2-0.2-3.4-0.3
		c-0.2,0-0.5-0.1-0.8-0.1c-0.1,0.1-0.2,0.2-0.2,0.3c-0.1,1.3-0.3,2.6-0.4,3.9c-0.1,0.7,0.1,0.8,0.8,1c1.4,0.3,2.8,0.5,4.2,0.4
		c0.8,0,1.4,0.3,1.8,1c0.5,0.8,0.1,1.4-0.8,1.4c-1.7,0.1-3.3-0.1-4.9-0.5c-2.4-0.6-3.6-2-3.5-4.5c0-0.8,0.1-1.5,0.2-2.2
		c0.5-2.9,0.6-2.9,1.1-5.7c0-0.3,0.1-0.6,0.1-0.8c-0.2-0.2-0.4-0.4-0.6-0.7c-0.2-0.3-0.3-0.6-0.3-1.1c0.1-0.4,0.5-0.7,0.9-0.6
		c1.5,0.2,3,0.4,4.5,0.6c1.1,0.2,2.2,0.5,3.2,0.7c0.6,0.1,1,0.5,1.3,1c0.2,0.3,0.3,0.7,0,1.1c-0.3,0.4-0.7,0.3-1.1,0.2
		c-1.6-0.6-3.3-0.7-4.9-1c-0.1,0-0.3,0-0.6,0C64.1,19.6,64.2,18.7,63.8,20.7z"/>
	<path class="st1" d="M86.6,27.6c-0.9,1.4-1.9,2.8-2.9,4.2c-0.3,0.4-0.6,0.7-0.9,1.1c-0.8,0.8-1.7,0.7-2.4-0.1
		c-0.5-0.5-0.6-1.2-0.6-1.9c0.1-1.4,0.2-2.9,0.3-4.3c0.2-2.5,0.5-5,0.8-7.4c0-0.4,0.1-0.8,0.5-1c0.5-0.2,0.9,0,1.2,0.3
		c0.5,0.4,0.8,0.9,0.7,1.5c-0.1,1.2-0.3,2.5-0.4,3.7c-0.1,1.6-0.3,3.2-0.5,4.7c0,0.1,0,0.3,0,0.5c0.2-0.2,0.3-0.3,0.4-0.5
		c0.9-1.3,1.7-2.6,2.6-3.8c0.3-0.5,0.7-0.9,1-1.3c0.5-0.5,1-0.6,1.6-0.3c0.6,0.3,1,0.8,1.1,1.4c0.1,0.4,0.2,0.9,0.2,1.3
		c0.4,1.9,0.7,3.9,1.1,5.8c0.1,0.3,0.1,0.5,0.3,0.8c0.1-0.2,0.1-0.4,0.2-0.5c0.3-2.2,0.6-4.4,0.9-6.6c0.2-1.4,0.5-2.9,0.8-4.3
		c0.1-0.6,0.6-0.8,1.2-0.6c0.8,0.3,1.4,1.1,1.2,2c-0.1,0.6-0.3,1.3-0.5,1.9c-0.4,2.6-0.8,5.2-1.2,7.8c-0.2,1.1-0.3,2.2-0.6,3.3
		c-0.4,1.2-1.4,1.5-2.4,0.7c-0.4-0.3-0.8-0.8-1-1.3c-0.5-1-0.9-2.1-1.2-3.2c-0.4-1.3-0.6-2.6-0.9-3.9c-0.1-0.2-0.1-0.4-0.2-0.8
		C86.9,27.2,86.7,27.4,86.6,27.6z"/>
	<path class="st1" d="M95,36.9c-0.5-0.4-0.9-0.8-0.8-1.5c0.1-0.5,0.1-1.1,0.2-1.6c0.7-4.2,1.5-8.5,2.2-12.7c0.1-0.8,0.7-1.3,1.7-0.7
		c0.5,0.3,0.8,0.8,0.8,1.5c0,0.3-0.1,0.5-0.1,0.8c-1,5.9-1.8,9.7-2.3,13.4C96.5,37.2,95.7,37.4,95,36.9z"/>
	<path class="st1" d="M103.6,27.1c-0.6,3.4-1.1,6.7-1.4,10.1c0,0.3-0.1,0.7-0.1,1c-0.1,0.4-0.5,0.7-0.9,0.6c-0.7-0.1-1.5-1-1.4-1.8
		c0.2-1.5,0.2-3.1,0.4-4.6c0.4-2.7,0.9-5.5,1.4-8.2c0.1-0.6,0.5-3.1,0.6-3.8c-0.8-0.2-1.5-0.5-2.3-0.8c-0.6-0.2-1.3-0.5-1.9-0.9
		c-0.3-0.2-0.6-0.6-0.8-1c-0.2-0.3-0.2-0.7,0.1-1c0.2-0.2,0.6-0.3,0.9-0.2c0.1,0,0.2,0.1,0.3,0.1c1.5,0.9,3.2,1.3,4.9,1.6
		c1.7,0.4,3.5,0.7,5.2,0.6c0.8,0,1.4,0.4,1.8,1.1c0.3,0.6,0,1.4-0.9,1.3c-1.6-0.2-3.2-0.2-4.9-0.4C104.4,22.4,103.8,25.6,103.6,27.1
		z"/>
	<path class="st1" d="M111.6,31.6c0.6,0.1,1.1,0.2,1.8,0.3c0,0,0.1-0.2,0.1-0.3c0.5-2,0.9-4.1,1.4-6.1c0.1-0.5,0.2-0.9,0.4-1.4
		c0.2-0.6,0.6-0.8,1.1-0.6c0.9,0.3,1.4,1.1,1.2,2.1c-0.3,1-0.6,2.1-0.8,3.2c-0.8,3.6-1.6,7.3-2.2,11c0,0.2-0.1,0.3-0.1,0.5
		c0,1-0.9,1.1-1.5,0.7c-0.6-0.4-1-1-0.9-1.7c0.2-1.2,0.4-2.4,0.6-3.7c0.1-0.5,0.1-0.9,0.2-1.4c-1.7-0.3-3.3-0.5-5.1-0.7
		c-0.1,1.1-0.2,2.1-0.3,3.2c-0.1,0.8,0,1.6,0,2.4c0,0.4-0.1,0.8-0.4,1c-0.4,0.2-0.7,0.1-1.1-0.1c-0.6-0.3-0.9-0.9-0.9-1.5
		c0-1.4,0.1-2.8,0.1-4.1c0.1-0.8,0.1-1.6,0.1-2.4c0-0.1,0-0.3,0.1-0.4c0.4-0.6,0.3-1.3,0.5-2c0.5-2.1,1-4.1,1.5-6.2
		c0.2-0.9,0.6-1.1,1.4-0.9c0.8,0.3,1.3,1.2,1.1,1.9c-0.7,2-1.2,4.1-1.6,6.2c0,0.2-0.1,0.5-0.1,0.8C109.5,31.2,110.6,31.4,111.6,31.6
		z"/>
	<path class="st1" d="M128.6,40.3c0.5-0.1,1-0.3,1.5-0.3c0.8-0.1,1.6,0.5,1.8,1.2c0.2,0.6-0.1,1-0.6,1.1c-1.5,0.3-3,0.6-4.5,1
		c-0.6,0.1-1.1,0.1-1.7-0.2c-0.8-0.4-1.3-1.1-1.4-2.1c0-0.6,0.1-1.3,0.2-1.9c0.4-2,0.8-4,1.2-5.9c0.5-2.3,1-4.6,1.5-6.9
		c0.1-0.3,0.1-0.5,0.2-0.8c0.2-1,0.9-1.3,1.7-0.7c0.6,0.4,0.8,1.1,0.6,1.8c-0.4,2.1-0.9,4.1-1.3,6.2c-0.5,2.4-1,4.7-1.5,7.1
		c-0.1,0.2-0.1,0.5-0.1,0.9C127.1,40.6,127.8,40.5,128.6,40.3z"/>
	<path class="st1" d="M134.6,34.6c0.1-0.3,0.2-0.5,0.3-0.8c0.2-0.4,0.4-0.7,0.1-1.2c-0.2-0.5,0-0.9,0.4-1.2c0.4-0.2,0.7-0.4,1.1-0.6
		c0.5-0.2,1-0.4,1.5-0.6c0.4-0.2,0.9-0.2,1.3,0c0.4,0.2,0.9,0.4,1.3,0.5c3.2,0.9,5.3,3.4,5.4,6.6c0,4.3-3.4,7.8-7.5,7.2
		C134.2,43.7,133.1,38.1,134.6,34.6z M139.7,32.8c-0.5-0.1-0.8,0.1-1.1,0.4c-0.8,1-1.5,2.1-1.9,3.3c-0.6,2-0.5,5.4,2,5.5
		c2.4,0,4.6-2,5-4.3C144.1,34.5,142.5,33.6,139.7,32.8z"/>
	<path class="st1" d="M153.3,42.3c1.4-3,2.7-5.9,4.1-8.9c0.5-1.1,1-2.1,1.6-3.1c0.4-0.8,1-0.9,1.7-0.4c0.7,0.5,0.9,1.2,0.6,1.8
		c-2.2,4.1-4,8.5-6,12.7c-0.4,0.8-0.9,1.7-1.4,2.5c-0.8,1.2-2.1,1.1-2.8-0.1c-0.3-0.4-0.4-1-0.5-1.5c-0.3-2-0.4-3.9-0.7-5.9
		c-0.2-2.2-0.5-4.3-0.7-6.5c-0.1-0.7-0.3-1.5-0.4-2.2c-0.1-0.4-0.1-0.7,0.2-1c0.3-0.2,0.6-0.2,0.9,0c0.7,0.3,1.1,0.8,1.2,1.5
		c0.2,0.7,0.3,1.4,0.4,2c0.3,3.1,0.6,6.3,1,9.4c0,0.2,0,0.4,0.1,0.7C153,43,153.1,42.7,153.3,42.3z"/>
	<path class="st1" d="M163.9,38.4c0.6,0.1,1,0.2,1.5,0.3c0.5,0.1,1.9,0.2,2.5,0.3c0.8,0.1,1.3,2.3-0.1,2.2c-1.1-0.1-2.2-0.2-3.4-0.3
		c-0.2,0-0.5-0.1-0.8-0.1c-0.1,0.1-0.2,0.2-0.2,0.3c-0.1,1.3-0.3,2.6-0.4,3.9c-0.1,0.7,0.1,0.8,0.8,1c1.4,0.3,2.8,0.5,4.2,0.4
		c0.8,0,1.4,0.3,1.8,1c0.5,0.8,0.1,1.4-0.8,1.4c-1.7,0.1-3.3-0.1-4.9-0.5c-2.4-0.6-3.6-2-3.5-4.5c0-0.8,0.1-1.5,0.2-2.2
		c0.5-2.9,0.6-2.9,1.1-5.7c0-0.3,0.1-0.6,0.1-0.8c-0.2-0.2-0.4-0.4-0.6-0.7c-0.2-0.3-0.3-0.6-0.3-1.1c0.1-0.4,0.5-0.7,0.9-0.6
		c1.5,0.2,3,0.4,4.5,0.6c1.1,0.2,2.2,0.5,3.2,0.7c0.6,0.1,1,0.5,1.3,1c0.2,0.3,0.3,0.7,0,1.1c-0.3,0.4-0.7,0.3-1.1,0.2
		c-1.6-0.6-3.3-0.7-4.9-1c-0.1,0-0.3,0-0.6,0C164.2,37.3,164.3,36.4,163.9,38.4z"/>
</g>
<g class="st0">
	<path class="st1" d="M4.6,30.7c-0.4-0.6-0.1-1.2,0.7-1.3c0.6-0.1,1.1-0.1,1.7,0c2.1,0.2,4.2,0.8,6.1,1.9c0.6,0.4,1.2,0.9,1.7,1.4
		c1.3,1.4,1.2,3-0.1,4.3c-0.7,0.7-1.6,1.3-2.5,1.8c-0.3,0.2-0.6,0.3-1,0.5c0.3,0.2,0.5,0.4,0.7,0.6c0.9,0.7,1.6,1.4,2.1,2.4
		c1,1.9,0.5,3.5-1.3,4.6c-1.4,0.8-2.9,1.1-4.5,1c-0.4,0-0.8,0-1.2,0c-0.2,0.6-0.3,1.2-0.5,1.8c-0.2,0.9-0.9,1.1-1.7,0.6
		c-0.5-0.4-0.8-0.9-0.7-1.7c0.1-0.4,0.1-0.8,0.2-1.2c-0.2-0.2-0.4-0.4-0.6-0.6c-0.3-0.4-0.4-0.8-0.2-1.2c0.2-0.4,0.6-0.5,1-0.4
		c0.1,0,0.1,0,0.2-0.1c0.4-1.1,1-11.1,0.8-13.1C5.2,31.4,4.8,31.1,4.6,30.7z M11.5,44.5c0.9-0.6,1-1.4,0.2-2.1
		c-0.6-0.5-1.2-1-1.8-1.4c-0.6-0.4-1.3-0.8-2-1.3c-0.2,1.9-0.3,3.8-0.5,5.9C8.9,45.6,10.3,45.4,11.5,44.5z M11.7,35.9
		c0.4-0.3,0.8-0.7,1.1-1.1c0.6-0.6,0.5-1.1-0.2-1.5c-0.7-0.4-1.5-0.7-2.4-1.1c-0.6-0.3-1.3-0.5-2.1-0.5c0,2-0.1,3.9-0.2,6
		C9.3,37.2,10.6,36.8,11.7,35.9z"/>
	<path class="st1" d="M23,43.1c-0.3,0.3-0.6,0.7-1,1c-0.8,0.7-1.7,0.6-2.5-0.1c-0.5-0.5-0.8-1.1-0.9-1.7c-0.2-1.4-0.5-2.8-0.6-4.1
		c-0.1-1.3-0.2-2.6-0.3-3.8c0-0.4,0-0.7,0.3-0.9c0.4-0.2,0.7-0.1,1.1,0c0.6,0.4,1,0.9,1,1.6c0.1,0.7,0.1,1.4,0.2,2.1
		c0.1,1.4,0.2,2.8,0.4,4.2c0,0,0.1,0,0.2,0.1c0.2-0.2,0.4-0.4,0.5-0.6c1.1-1.4,2.2-2.8,3.4-4.2c0.3-0.4,0.6-0.7,0.9-1.1
		c0.9-1,3.1-0.2,2.7,1.1c-0.3,1.2-0.9,3.2-1.3,4.3c-1.1,3.2-2.2,6.4-3.4,9.5c-0.1,0.4-0.3,0.8-0.5,1.2c-0.2,0.5-0.6,0.6-1.1,0.5
		c-1-0.2-1.4-1.2-1.1-2.2c0.9-2.3,1.7-4.5,2.6-6.8c0.1-0.2,0.1-0.4,0.2-0.6c0,0-0.1,0-0.1-0.1C23.4,42.7,23.2,43,23,43.1z"/>
	<path class="st1" d="M42.1,48.7c-0.7,0.7-1.2,0.7-1.9,0.1c-0.7-0.6-0.7-1.3-0.1-2c0.7-0.9,1.6-1.5,2.6-1.9c3-1.4,5.2,1.3,5,3.6
		c-0.2,2.5-2.4,4.7-5.1,5.1c-3.1,0.3-5.5-1.3-6.6-3.5c-1-2-0.8-4.4,0.1-6.4c1.3-3.2,3.5-5.8,6.6-7.4c0.5-0.3,1.1-0.5,1.7-0.7
		c0.8-0.2,1.6,0.3,1.9,1.1c0.2,0.6,0.1,1-0.5,1.2c-3.8,1.3-6,4-7.4,7.5c-1.1,2.7,0.2,6.3,3.4,5.8c1.7-0.3,2.9-1.3,3.5-2.9
		c0.9-2.2-1.7-0.8-2.4-0.2C42.6,48.2,42.4,48.4,42.1,48.7z"/>
	<path class="st1" d="M51.4,53.2c-0.3,0-0.5,0.2-0.6,0.5c-0.5,0.8-1.1,1.7-1.6,2.6c-0.4,0.6-0.9,0.8-1.5,0.4
		c-0.8-0.5-1.1-1.3-0.6-2.2c0.3-0.4,0.5-0.9,0.8-1.3c0.3-0.4,0.6-0.8,0.5-1.5c-0.1-0.3,0.2-0.7,0.5-0.7c0.4,0,0.6-0.3,0.8-0.6
		c2.1-3.6,4.2-7.3,6.3-10.9c0.2-0.3,0.3-0.6,0.5-0.8c0.3-0.5,0.7-0.6,1.3-0.4c0.7,0.3,1.2,0.8,1.2,1.6c0.1,0.7,0,1.3-0.1,2
		c-0.2,2.3-0.5,4.7-0.7,7c-0.2,2.7-0.6,5.5-0.4,8.2c0,0.4,0,0.9-0.4,1.1c-0.5,0.3-0.9,0.1-1.3-0.2c-0.4-0.3-0.7-0.8-0.7-1.3
		c0-1.1,0-2.1,0-3.2c0-0.2,0-0.3,0-0.6C54,53,52.7,53.1,51.4,53.2z M55.5,50.5c0.2-1.9,0.4-3.7,0.5-5.5c-0.1,0-0.1,0-0.2,0
		c-1,1.8-2.1,3.7-3.2,5.6C53.6,50.6,54.6,50.5,55.5,50.5z"/>
	<path class="st1" d="M71.3,48c-1.1,1.8-2.1,3.6-3.1,5.4c-0.4,0.7-0.8,1.4-1.3,2.1c-0.8,1.1-2,1.1-2.8-0.1c-0.3-0.5-0.5-1.1-0.6-1.6
		c-0.2-1.1-0.3-2.2-0.4-3.3c0-0.3-0.1-0.6-0.1-0.8c-0.1,0-0.1,0-0.2,0c-0.3,0.7-0.5,1.3-0.7,2c-0.8,2.1-1.6,4.2-2.4,6.3
		c0,0.1,0,0.1,0,0.2c-0.4,0.9-0.7,1-1.3,0.9c-0.7-0.2-1.3-0.9-1.2-1.6c0-0.2,0.1-0.5,0.2-0.7c1.6-4.4,3.2-8.8,4.8-13.2
		c0-0.1,0-0.1,0.1-0.2c0.4-1.1,1.2-1.3,2.1-0.5c0.4,0.4,0.6,0.8,0.6,1.4c0.1,0.6,0.1,1.2,0.2,1.9c0.2,1.8,0.3,3.6,0.5,5.4
		c0,0.2,0.1,0.3,0.2,0.6c0.3-0.5,0.5-0.9,0.8-1.3c1.4-2.5,2.7-4.9,4.4-7.2c0.3-0.4,0.6-0.9,1-1.3c0.6-0.6,1.3-0.7,2-0.1
		c0.5,0.4,0.8,1,0.8,1.6c0,1-0.1,1.9-0.2,2.9c-0.4,2.9-0.9,5.7-1.2,8.6c-0.2,1.8-0.5,3.6-0.5,5.3c0,0.9-0.6,1.3-1.5,0.8
		c-0.6-0.3-0.9-0.8-0.9-1.5c0-0.9,0-1.8,0.1-2.6c0.4-3.1,0.9-6.3,1.3-9.4c0-0.2,0.1-0.5,0.1-0.7c0,0-0.1,0-0.1-0.1
		C71.6,47.6,71.4,47.8,71.3,48z"/>
	<path class="st1" d="M78.1,50.7c0.6,0.1,1,0.2,1.5,0.3c0.5,0.1,1.9,0.2,2.5,0.3c0.8,0.1,1.3,2.3-0.1,2.2c-1.1-0.1-2.2-0.2-3.4-0.3
		c-0.2,0-0.5-0.1-0.8-0.1c-0.1,0.1-0.2,0.2-0.2,0.3c-0.1,1.3-0.3,2.6-0.4,3.9c-0.1,0.7,0.1,0.8,0.8,1c1.4,0.3,2.8,0.5,4.2,0.4
		c0.8,0,1.4,0.3,1.8,1c0.5,0.8,0.1,1.4-0.8,1.4c-1.7,0.1-3.3-0.1-4.9-0.5c-2.4-0.6-3.6-2-3.5-4.5c0-0.8,0.1-1.5,0.2-2.2
		c0.5-2.9,0.6-2.9,1.1-5.7c0-0.3,0.1-0.6,0.1-0.8c-0.2-0.2-0.4-0.4-0.6-0.7c-0.2-0.3-0.3-0.6-0.3-1.1c0.1-0.4,0.5-0.7,0.9-0.6
		c1.5,0.2,3,0.4,4.5,0.6c1.1,0.2,2.2,0.5,3.2,0.7c0.6,0.1,1,0.5,1.3,1c0.2,0.3,0.3,0.7,0,1.1c-0.3,0.4-0.7,0.3-1.1,0.2
		c-1.6-0.6-3.3-0.7-4.9-1c-0.1,0-0.3,0-0.6,0C78.4,49.6,78.5,48.7,78.1,50.7z"/>
	<path class="st1" d="M94.7,60.9c0.3,0.3,0.6,0.6,0.8,0.9c0.4,0.5,0.4,1,0.1,1.3c-0.3,0.3-0.8,0.3-1.3,0c-0.2-0.2-0.4-0.3-0.6-0.5
		c-1.5-1.4-2.9-2.8-4.4-4.1c-0.2-0.2-0.4-0.3-0.7-0.5c-0.1,0.3-0.1,0.6-0.2,0.8c-0.3,1.3-0.6,2.7-0.8,4c-0.2,0.9-1,1.1-1.7,0.5
		c-0.6-0.4-0.8-1-0.7-1.7c1-3.8,1.4-7.6,2-11.4c0.2-1.3,0.3-2.6,0.5-3.9c0.1-0.9,0.3-1.1,1.2-1.1c1,0,2,0.3,3,0.6
		c1.6,0.6,3,1.3,4.3,2.5c0.5,0.4,0.9,1,1.3,1.5c1.2,1.8,1.1,3.7-0.5,5.3c-1.2,1.3-2.8,2.1-4.5,2.6c-0.2,0.1-0.4,0.1-0.7,0.2
		c0,0,0,0-0.1,0.1C92.7,59,93.7,60,94.7,60.9z M89,55.7c1.1,0.1,2-0.2,2.9-0.5c1.3-0.5,2.5-1.2,3.3-2.2c0.8-1.1,0.8-2-0.2-3
		c-1.4-1.3-3-2.1-5-2.3C89.7,50.4,89.3,53,89,55.7z"/>
	<path class="st1" d="M102.7,50.8c-0.8,0.6-1.1,1.4-0.9,2.4c0.2,0.8,0.5,1.6,0.9,2.4c0.5,1.2,1.2,2.3,1.7,3.4c0.5,1,0.8,2,0.9,3.1
		c0.3,3.1-2.2,4.5-4.5,4.3c-0.4,0-0.8-0.1-1.1-0.2c-0.6-0.2-1-0.5-1.3-1.2c-0.2-0.7,0.2-1.2,0.9-1.2c0.2,0,0.5,0.1,0.7,0.1
		c1.8,0.3,3.1-1,2.8-2.7c-0.1-0.6-0.4-1.3-0.6-1.9c-0.4-1-0.9-1.9-1.4-2.8c-0.4-1-0.9-2-1.2-3.1c-0.2-0.6-0.2-1.3-0.3-1.9
		c-0.1-0.8,0.3-1.5,0.8-2.2c1.5-1.8,4.4-2.5,6.5-1.6c0.5,0.2,0.9,0.5,1.1,1c0.3,0.7-0.1,1.3-0.9,1.2c-0.2,0-0.4-0.1-0.6-0.1
		C104.9,49.7,103.8,50,102.7,50.8z"/>
	<path class="st1" d="M118.7,66c0.5-0.1,1-0.3,1.5-0.3c0.8-0.1,1.6,0.5,1.8,1.2c0.2,0.6-0.1,1-0.6,1.1c-1.5,0.3-3,0.6-4.5,1
		c-0.6,0.1-1.1,0.1-1.7-0.2c-0.8-0.4-1.3-1.1-1.4-2.1c0-0.6,0.1-1.3,0.2-1.9c0.4-2,0.8-4,1.2-5.9c0.5-2.3,1-4.6,1.5-6.9
		c0.1-0.3,0.1-0.5,0.2-0.8c0.2-1,0.9-1.3,1.7-0.7c0.6,0.4,0.8,1.1,0.6,1.8c-0.4,2.1-0.9,4.1-1.3,6.2c-0.5,2.4-1,4.7-1.5,7.1
		c-0.1,0.2-0.1,0.5-0.1,0.9C117.3,66.3,118,66.1,118.7,66z"/>
	<path class="st1" d="M127.4,59.4c0.6,0.1,1,0.2,1.5,0.3c0.5,0.1,1.9,0.2,2.5,0.3c0.8,0.1,1.3,2.3-0.1,2.2c-1.1-0.1-2.2-0.2-3.4-0.3
		c-0.2,0-0.5-0.1-0.8-0.1c-0.1,0.1-0.2,0.2-0.2,0.3c-0.1,1.3-0.3,2.6-0.4,3.9c-0.1,0.7,0.1,0.8,0.8,1c1.4,0.3,2.8,0.5,4.2,0.4
		c0.8,0,1.4,0.3,1.8,1c0.5,0.8,0.1,1.4-0.8,1.4c-1.7,0.1-3.3-0.1-4.9-0.5c-2.4-0.6-3.6-2-3.5-4.5c0-0.8,0.1-1.5,0.2-2.2
		c0.5-2.9,0.6-2.9,1.1-5.7c0-0.3,0.1-0.6,0.1-0.8c-0.2-0.2-0.4-0.4-0.6-0.7c-0.2-0.3-0.3-0.6-0.3-1.1c0.1-0.4,0.5-0.7,0.9-0.6
		c1.5,0.2,3,0.4,4.5,0.6c1.1,0.2,2.2,0.5,3.2,0.7c0.6,0.1,1,0.5,1.3,1c0.2,0.3,0.3,0.7,0,1.1s-0.7,0.3-1.1,0.2
		c-1.6-0.6-3.3-0.7-4.9-1c-0.1,0-0.3,0-0.6,0C127.7,58.3,127.8,57.4,127.4,59.4z"/>
	<path class="st1" d="M142.1,66.3c-0.7,0.7-1.2,0.7-1.9,0.1c-0.7-0.6-0.7-1.3-0.1-2c0.7-0.9,1.6-1.5,2.6-1.9c3-1.4,5.2,1.3,5,3.6
		c-0.2,2.5-2.4,4.7-5.1,5.1c-3.1,0.3-5.5-1.3-6.6-3.5c-1-2-0.8-4.4,0.1-6.4c1.3-3.2,3.5-5.8,6.6-7.4c0.5-0.3,1.1-0.5,1.7-0.7
		c0.8-0.2,1.6,0.3,1.9,1.1c0.2,0.6,0.1,1-0.5,1.2c-3.8,1.3-6,4-7.4,7.5c-1.1,2.7,0.2,6.3,3.4,5.8c1.7-0.3,2.9-1.3,3.5-2.9
		c0.9-2.2-1.7-0.8-2.4-0.2C142.6,65.8,142.3,66.1,142.1,66.3z"/>
	<path class="st1" d="M151.4,70.9c-0.3,0-0.5,0.2-0.6,0.5c-0.5,0.8-1.1,1.7-1.6,2.6c-0.4,0.6-0.9,0.8-1.5,0.4
		c-0.8-0.5-1.1-1.3-0.6-2.2c0.3-0.4,0.5-0.9,0.8-1.3c0.3-0.4,0.6-0.8,0.5-1.5c-0.1-0.3,0.2-0.7,0.5-0.7c0.4,0,0.6-0.3,0.8-0.6
		c2.1-3.6,4.2-7.3,6.3-10.9c0.2-0.3,0.3-0.6,0.5-0.8c0.3-0.5,0.7-0.6,1.3-0.4c0.7,0.3,1.2,0.8,1.2,1.6c0.1,0.7,0,1.3-0.1,2
		c-0.2,2.3-0.5,4.7-0.7,7c-0.2,2.7-0.6,5.5-0.4,8.2c0,0.4,0,0.9-0.4,1.1c-0.5,0.3-0.9,0.1-1.3-0.2c-0.4-0.3-0.7-0.8-0.7-1.3
		c0-1.1,0-2.1,0-3.2c0-0.2,0-0.3,0-0.6C153.9,70.7,152.7,70.8,151.4,70.9z M155.5,68.2c0.2-1.9,0.4-3.7,0.5-5.5c-0.1,0-0.1,0-0.2,0
		c-1,1.9-2.1,3.7-3.2,5.6C153.6,68.3,154.5,68.2,155.5,68.2z"/>
	<path class="st1" d="M162,70.6c0.2,2.4,1.8,3.7,4.2,3.6c0.2,0,1.2,0,1.4,0.1c1.3,0.2,1,2.2-0.5,2.3c-4.4,0.3-7-3-7.5-5.8
		c-0.4-2.3,0-4.4,0.9-6.5c1.1-2.5,2.7-4.6,5.1-6c1.1-0.7,2.3-0.9,3.5-0.6c0.6,0.2,1.2,0.5,1.5,1.1c0.2,0.3,0.3,0.7,0.1,1.1
		c-0.3,0.4-0.7,0.4-1,0.2c-1-0.4-1.9-0.1-2.7,0.4c-2,1.4-3.4,3.3-4.3,5.5c-0.3,0.7-0.5,1.4-0.7,2.3C161.9,69,161.9,69.8,162,70.6z"
		/>
	<path class="st1" d="M177.3,70.4c-0.3,0.3-0.6,0.7-1,1c-0.8,0.7-1.7,0.6-2.5-0.1c-0.5-0.5-0.8-1.1-0.9-1.7
		c-0.2-1.4-0.5-2.8-0.6-4.1c-0.1-1.3-0.2-2.6-0.3-3.8c0-0.4,0-0.7,0.3-0.9c0.4-0.2,0.7-0.1,1.1,0c0.6,0.4,1,0.9,1,1.6
		c0.1,0.7,0.1,1.4,0.2,2.1c0.1,1.4,0.2,2.8,0.4,4.2c0,0,0.1,0,0.2,0.1c0.2-0.2,0.4-0.4,0.5-0.6c1.1-1.4,2.2-2.8,3.4-4.2
		c0.3-0.4,0.6-0.7,0.9-1.1c0.9-1,3.1-0.2,2.7,1.1c-0.3,1.2-0.9,3.2-1.3,4.3c-1.1,3.2-2.2,6.4-3.4,9.5c-0.1,0.4-0.3,0.8-0.5,1.2
		c-0.2,0.5-0.6,0.6-1.1,0.5c-1-0.2-1.4-1.2-1.1-2.2c0.9-2.3,1.7-4.5,2.6-6.8c0.1-0.2,0.1-0.4,0.2-0.6c0,0-0.1,0-0.1-0.1
		C177.7,70,177.5,70.2,177.3,70.4z"/>
</g>
</svg>
