<svg xmlns="http://www.w3.org/2000/svg" width="162.967" height="75.207" viewBox="0 0 162.967 75.207">
  <g id="Group_58" data-name="Group 58" transform="translate(0 0)">
    <path id="Path_837" data-name="Path 837" d="M272.961,202.833c-.508-.5-.51-.735-.064-1.209.226-.241.417-.514.631-.767,1.151-1.363,2.3-2.732,3.461-4.083.742-.861,1.518-1.693,2.275-2.541.086-.1.145-.215.23-.312.2-.231.369-.478.755-.237.116.074.424-.028.562-.145a.422.422,0,0,1,.642-.022c1.155.984,2.318,1.96,3.472,2.944.395.337.525.3.793-.126a2.186,2.186,0,0,0,.3-1.278c-.111-5.681-.193-11.362-.331-17.043a5.118,5.118,0,0,0-.523-1.853,15.435,15.435,0,0,0-1.208-2.227,9,9,0,0,0-2.825-2.7c-.331-.207-.668-.405-1.015-.585a.861.861,0,0,0-1.017.078,4.981,4.981,0,0,0-1.165,1.113,6.766,6.766,0,0,0-.59,1.825,3.858,3.858,0,0,0,0,1,1.237,1.237,0,0,0,.839,1.133c.7.244,1.423.439,2.1.727a4.732,4.732,0,0,1,2.521,2.411,8.807,8.807,0,0,1,.8,3.393,16.952,16.952,0,0,1-.351,4.446,2.077,2.077,0,0,1-.462.82,6.773,6.773,0,0,1-6.187,2.635c-.258-.026-.522.012-.781-.011-.128-.011-.309-.063-.357-.154a.407.407,0,0,1,.047-.39,1.631,1.631,0,0,1,.783-.372,5.958,5.958,0,0,0,1.582-.332,5.336,5.336,0,0,0,1.6-.921.946.946,0,0,0,.209-1.2,2.476,2.476,0,0,0-1.415-1.057,9.131,9.131,0,0,1-4.436-2.4,3.3,3.3,0,0,1-1.053-2.284c-.009-1.564-.112-3.136.01-4.69a11.26,11.26,0,0,1,.981-3.823,9.06,9.06,0,0,1,2.579-3.262,22.813,22.813,0,0,1,1.827-1.436c.5-.328,1.132-.464,1.637-.79.462-.3,1.012-.28,1.452-.534a1.649,1.649,0,0,1,.887-.207c.9-.011,1.794-.118,2.69-.105a14.35,14.35,0,0,1,2.177.226,5.471,5.471,0,0,1,1.466.435,17.636,17.636,0,0,1,2.023,1.176c.658.437,1.283.927,1.9,1.417.264.209.485.221.65-.064a5.54,5.54,0,0,1,2.2-2.093c.436-.236.836-.637,1.409-.569a.385.385,0,0,0,.25-.059,2.588,2.588,0,0,1,1.58-.308c1.143-.021,2.289-.092,3.428-.033a5.164,5.164,0,0,1,1.582.483,5.8,5.8,0,0,1,1.278.677,19.224,19.224,0,0,1,1.669,1.428,9.147,9.147,0,0,1,.782.922c.191.233.354.26.545-.014a7.591,7.591,0,0,1,2.414-2.139,5.937,5.937,0,0,1,2.158-.888c.566-.084,1.111-.361,1.674-.4a17.376,17.376,0,0,1,3.508-.014,4.513,4.513,0,0,1,3.125,1.829,4.272,4.272,0,0,1,.639,3.42c-.207,1.224-.254,2.475-.372,3.714a2.967,2.967,0,0,0,1.541,2.812c.364.253.712.528,1.145.851-.454.335-.852.608-1.227.911a6.755,6.755,0,0,0-2.555,3.768,7.654,7.654,0,0,0-.156,1.768c.039,3.146.112,6.29.156,9.435a2.712,2.712,0,0,0,1.6,2.442c.1.053.234.023.335.07.169.078.424.158.459.287a.713.713,0,0,1-.165.56c-.366.409-.8.754-1.164,1.169-1.05,1.214-2.076,2.448-3.1,3.68a2.433,2.433,0,0,0-.221.421.837.837,0,0,1-1.14.466,1.1,1.1,0,0,0-.55-.033.766.766,0,0,1-.823-.241c-1.136-1.232-2.277-2.46-3.4-3.7a.844.844,0,0,1-.166-.515c-.076-3.8-.13-7.594-.216-11.391a3.672,3.672,0,0,1,.9-2.1,13.893,13.893,0,0,1,3.645-3.78c.421-.3.838-.605,1.23-.939s.357-.576-.115-.83c-.278-.15-.556-.3-.823-.472a5.912,5.912,0,0,1-2.555-3.417,8.449,8.449,0,0,1-.222-2.9,20.056,20.056,0,0,0-.2-3.2,2.774,2.774,0,0,0-.577-1.092.51.51,0,0,0-.484-.008,11.188,11.188,0,0,0-2.534,2.719c-.081.118-.172.23-.261.343a2.15,2.15,0,0,0-.533,1.461q.133,5.108.182,10.217a3.3,3.3,0,0,1-.36,1.319c-.61,1.354-1.234,2.7-1.906,4.026-.593,1.17-1.23,2.319-1.9,3.449-.585.993-1.221,1.959-1.864,2.916-.772,1.15-1.528,2.317-2.377,3.409-1.281,1.644-2.638,3.228-3.96,4.84a.629.629,0,0,1-.851.146,1.955,1.955,0,0,0-.588-.03c-.17-.013-.394.014-.5-.082q-1.8-1.606-3.563-3.25c-.4-.368-.547-.383-.894.047q-.927,1.146-1.836,2.306c-.25.318-.482.65-.725.975-.3.394-.448.408-.815.09-.192-.166-.405-.263-.6-.015-.141.18-.266.212-.415.026s-.434-.357-.19-.662c.612-.765,1.236-1.521,1.838-2.293.867-1.112,1.705-2.247,2.581-3.352.776-.981,1.591-1.93,2.379-2.9.291-.358.561-.733.826-1.11s.442-.395.858-.228a.6.6,0,0,0,.512-.181c.252-.285.42-.191.638.022,1.068,1.042,2.138,2.083,3.222,3.108a2.843,2.843,0,0,0,.612.345,3.47,3.47,0,0,0,.125-.679q-.2-11.935-.422-23.869a4.9,4.9,0,0,0-1.241-3.181.552.552,0,0,0-.844-.051,8.709,8.709,0,0,0-2.172,2.162,1.577,1.577,0,0,0-.276.826c.072,4.8.17,9.594.245,14.391a1.34,1.34,0,0,1-.23.757c-.884,1.216-1.8,2.408-2.7,3.613-.656.88-1.292,1.776-1.952,2.653-.634.841-1.3,1.661-1.932,2.5-1.017,1.351-2.017,2.715-3.031,4.068q-1.272,1.7-2.562,3.384c-.218.285-.449.388-.744.059-.191-.213-.424-.3-.665-.009a.364.364,0,0,1-.347-.021c-1.168-1.062-2.318-2.145-3.487-3.205a4.2,4.2,0,0,0-.915-.627c-.1-.049-.35.083-.452.2-.55.635-1.064,1.3-1.615,1.934C273.589,202.288,273.275,202.539,272.961,202.833Z" transform="translate(-223.074 -161.793)" fill="#fff"/>
    <path id="Path_838" data-name="Path 838" d="M216.044,159.471a8.322,8.322,0,0,1,.829.763c.973,1.164,1.948,2.327,2.873,3.528.677.88,1.3,1.8,1.909,2.735.733,1.122,1.45,2.255,2.126,3.411.6,1.031,1.158,2.09,1.7,3.153.591,1.154,1.169,2.316,1.709,3.495.439.958.83,1.937,1.211,2.919q.729,1.876,1.4,3.772.45,1.264.827,2.554c.4,1.373.816,2.744,1.154,4.134.427,1.757.833,3.522,1.155,5.3.27,1.494.442,3.009.593,4.521.236,2.364.5,4.729.6,7.1q.2,4.318.139,8.645c-.03,2.038-.212,4.079-.441,6.107a44.426,44.426,0,0,1-.807,4.437,29.385,29.385,0,0,1-.841,2.957,15.175,15.175,0,0,1-2.875,5.29,4.617,4.617,0,0,1-.424.383l-.135-.064c.031-.166.048-.335.095-.5.319-1.107.667-2.206.961-3.32.27-1.019.491-2.052.724-3.081.118-.521,0-.636-.52-.672-1.5-.1-3.01-.16-4.5-.367a34.144,34.144,0,0,1-6.227-1.507A34.783,34.783,0,0,1,214,222.925a30.9,30.9,0,0,1-9.581-7.77,25.871,25.871,0,0,1-2.844-4.177,34.851,34.851,0,0,1-3.176-8.43,37.972,37.972,0,0,1-1.085-8.765,31.6,31.6,0,0,1,.232-3.6,24.2,24.2,0,0,1,.369-2.783,32.09,32.09,0,0,1,.855-3.125,23.59,23.59,0,0,1,1.092-2.956,47.894,47.894,0,0,1,2.277-4.318,28.558,28.558,0,0,1,5.82-6.736c.923-.8,1.883-1.561,2.873-2.275.935-.675,1.928-1.27,2.9-1.891.556-.355,1.1-.735,1.689-1.031.808-.407,1.647-.753,2.478-1.112.4-.172.474-.3.248-.693-.587-1.011-1.194-2.011-1.791-3.017-.137-.23-.266-.465-.4-.7Zm1.49,51.172a1.652,1.652,0,0,1,.233-.073c1.411-.085,2.825-.141,4.233-.258a16.069,16.069,0,0,0,3.686-.772,9.059,9.059,0,0,0,1.647-.7.5.5,0,0,1,.456.052c1.23,1.142,2.443,2.3,3.666,3.454a2.054,2.054,0,0,0,.41.239,1.432,1.432,0,0,0,.16-.458q-.039-2.195-.114-4.389-.037-1.064-.137-2.126c-.047-.5-.249-.6-.681-.389-.414.205-.812.441-1.23.636a.518.518,0,0,1-.426.011,1.808,1.808,0,0,1-.476-.5c-.826-1.232-1.681-2.446-2.446-3.716-.7-1.157-1.336-2.354-1.916-3.574a34.594,34.594,0,0,1-1.3-3.249c-.381-1.069-.686-2.166-1.02-3.252-.034-.109-.085-.256-.04-.337.111-.2.239-.479.42-.537.568-.179,1.174-.232,1.743-.405a19.126,19.126,0,0,0,1.929-.724,11.9,11.9,0,0,0,1.77-.877.933.933,0,0,0,.282-.789,21.53,21.53,0,0,0-.56-2.136c-.127-.437-.345-.5-.75-.295a14.934,14.934,0,0,1-1.949.938c-1.079.364-2.2.612-3.292.931-.32.093-.394-.043-.4-.306-.017-.42-.043-.84-.045-1.259a39.2,39.2,0,0,1,.235-7.326c.177-.965.258-1.946.428-2.912a6.151,6.151,0,0,1,.452-1.619,2.371,2.371,0,0,0-.125-2.375c-.37-.665-.649-1.38-.976-2.069-.247-.521-.495-1.042-.769-1.548a.524.524,0,0,0-.353-.2c-.064-.01-.2.12-.223.208-.312,1.127-.625,2.254-.908,3.388-.174.7-.306,1.411-.443,2.12-.181.937-.4,1.871-.51,2.816-.177,1.48-.288,2.967-.414,4.452a32.246,32.246,0,0,0,.156,7.241c.046.328-.071.441-.379.48-1.394.174-2.781.394-4.178.533-.975.1-1.961.109-2.943.124-.527.007-.589-.081-.551-.628.089-1.284.171-2.569.3-3.849.1-.99.261-1.974.414-2.958.071-.454.182-.9.283-1.351.13-.577.251-1.157.406-1.727.173-.637.379-1.266.572-1.9.16-.521.3-1.049.486-1.563.294-.827.606-1.647.925-2.464.247-.629.5-1.254.781-1.868q.446-.979.951-1.928a1.166,1.166,0,0,1,.45-.495,7.581,7.581,0,0,1,1.055-.36c.5-.162,1.014-.31,1.513-.488.483-.172.947-.4,1.433-.558.421-.139.529-.331.316-.731-.156-.293-.323-.581-.489-.868-.508-.881-.531-.925-1.409-.494-1.319.647-2.637,1.311-3.9,2.064a35.013,35.013,0,0,0-5.777,4.354,31.566,31.566,0,0,0-6.537,8.427,28.285,28.285,0,0,0-2.368,6.17,31.1,31.1,0,0,0-.979,7.648,34.414,34.414,0,0,0,1.28,8.961c.452,1.725,1.131,3.393,1.743,5.073a20.426,20.426,0,0,0,2.584,4.833,39.551,39.551,0,0,0,3.03,3.769,33.465,33.465,0,0,0,3.1,2.893,23.384,23.384,0,0,0,2.164,1.488c.508.341,1.01.694,1.538,1,.6.349,1.229.664,1.855.97.577.281,1.164.541,1.755.789.512.215,1.035.406,1.555.6.439.16.877.326,1.326.454.618.178,1.244.329,1.869.478.431.1.869.181,1.3.277.825.183,1.645.4,2.477.55.437.082.893.053,1.338.1.9.092,1.807.218,2.712.3.719.063,1-.14,1.1-.855.189-1.229.337-2.464.49-3.7a.666.666,0,0,0-.364-.716c-1.674-1-3.356-1.993-4.993-3.053a52.092,52.092,0,0,1-8.315-6.681A4.156,4.156,0,0,1,217.533,210.643Z" transform="translate(-197.309 -159.471)" fill="#fff"/>
    <path id="Path_839" data-name="Path 839" d="M405.633,180.793q.085,4.739.17,9.479a1.032,1.032,0,0,0,.562,1.035,4.471,4.471,0,0,1,.729.6.573.573,0,0,0,.814-.026,16.344,16.344,0,0,1,2.554-1.716,8.171,8.171,0,0,1,2.234-.785.673.673,0,0,0,.57-.757q-.112-5.673-.209-11.348a.7.7,0,0,0-.356-.622c-.842-.6-1.645-1.26-2.442-1.923a.489.489,0,0,1-.031-.472,3.157,3.157,0,0,1,1.542-1.158,3.925,3.925,0,0,0,1.219-.768,23.557,23.557,0,0,0,2.153-2.174,24.887,24.887,0,0,0,1.445-2.141.456.456,0,0,1,.26-.187c.054-.011.152.105.2.183.209.349.355.35.568,0a1.753,1.753,0,0,1,.215-.323c.155-.16.314-.161.4.072a7.3,7.3,0,0,0,2.345,3.011,29.95,29.95,0,0,0,2.518,1.812c.359.248.383.445.054.724-.814.692-1.622,1.391-2.431,2.089a1.111,1.111,0,0,0-.335.944c.114,5.927.23,11.856.312,17.784a1.923,1.923,0,0,0,1.056,1.607,2.354,2.354,0,0,0,.812.377,3.715,3.715,0,0,0,.938.03c.272-.011.615-.126.709.214a.867.867,0,0,1-.194.675c-1.518,1.771-3.057,3.523-4.59,5.281-.086.1-.172.2-.248.3-.255.353-.522.527-.926.17-.088-.078-.308-.012-.468,0-.143.01-.338.106-.422.044-.985-.729-1.991-1.437-2.915-2.239a2.973,2.973,0,0,1-1.024-2.425c.027-1.057-.028-2.116-.043-3.174-.011-.686-.258-.875-.852-.523a13.551,13.551,0,0,0-2.429,1.651,28.149,28.149,0,0,0-2.881,3.171c-.913,1.165-1.693,2.435-2.519,3.667a.667.667,0,0,1-.93.34.89.89,0,0,0-.463-.076,1.214,1.214,0,0,1-1.245-.421,30.671,30.671,0,0,0-4.811-3.766c-.426-.273-.889-.485-1.329-.736-.1-.058-.265-.183-.25-.237a.573.573,0,0,1,.251-.368,4,4,0,0,0,1.785-1.58,2.3,2.3,0,0,0,.4-1.291c-.074-5.624-.184-11.247-.288-16.87a2.56,2.56,0,0,0-.195-1.476,2.74,2.74,0,0,0-2.436-1.363,7.306,7.306,0,0,1-1.409-.193c-.329-.072-.328-.383-.2-.6a5.613,5.613,0,0,1,.763-.969c.935-.955,1.91-1.872,2.831-2.84.539-.567,1.015-1.2,1.5-1.813a3.192,3.192,0,0,0,.452-.782c.133-.336.329-.339.62-.245a1.1,1.1,0,0,0,.424-.01,2.445,2.445,0,0,1,.9-.079,9.183,9.183,0,0,1,2.681,1.419c.253.193.506.387.738.6a2.872,2.872,0,0,1,1.024,2.271c-.02,2.971.08,5.943.133,8.914Z" transform="translate(-264.469 -162.239)" fill="#fff"/>
    <path id="Path_840" data-name="Path 840" d="M364.285,200.792c-.1-5.454-.191-10.8-.293-16.142-.031-1.638-.041-3.277-.149-4.91a2.9,2.9,0,0,0-1.816-2.634A2.293,2.293,0,0,1,360.984,176c-.124-.216,0-.385.241-.456a8.759,8.759,0,0,0,1.459-.451,10.71,10.71,0,0,0,1.64-1.048,9.281,9.281,0,0,0,1.382-1.217,15.107,15.107,0,0,0,2.339-3.3c.137-.278.356-.314.517-.044.213.357.334.243.522-.017a1.972,1.972,0,0,1,.446-.349c.1.143.2.293.313.429a18.611,18.611,0,0,0,1.668,1.972c.826.755,1.764,1.387,2.654,2.072.011.009.022.019.034.028.8.522.786.509.039,1.121-.548.449-1.056.946-1.6,1.4a1.083,1.083,0,0,0-.369.927q.166,8.869.324,17.739c0,.26.016.522.012.783a1.913,1.913,0,0,0,.835,1.617.961.961,0,0,0,.408.11,3.546,3.546,0,0,1,.641.1c.875.339.951,1.117.258,1.757-1.232,1.138-2.429,2.314-3.616,3.5a17,17,0,0,0-1.137,1.36c-.465.573-.563.6-1.251.383a.659.659,0,0,0-.378-.041,1.168,1.168,0,0,1-1.158-.32c-.8-.625-1.553-1.308-2.379-1.891A1.34,1.34,0,0,1,364.285,200.792Z" transform="translate(-253.325 -162.775)" fill="#fff"/>
    <path id="Path_841" data-name="Path 841" d="M377.782,237.151c-.541.032-1.082.108-1.62.087-2.271-.087-4.541-.228-6.811-.3-6.377-.212-12.755-.1-19.13.078-3.274.093-6.546.26-9.816.442-2.69.15-5.382.317-8.065.57q-6.146.581-12.277,1.3c-2.835.328-5.668.7-8.486,1.149-4.42.71-8.837,1.448-13.235,2.283-3.372.639-6.717,1.423-10.064,2.183q-3.516.8-7,1.713c-2.464.65-4.911,1.36-7.36,2.065-1.542.444-3.079.9-4.606,1.4-1.72.556-3.429,1.149-5.138,1.739-1.559.539-3.115,1.085-4.663,1.651-1.182.431-2.351.9-3.526,1.347-1.066.409-2.138.8-3.194,1.236-.783.322-1.544.7-2.316,1.046-.6.272-1.2.545-1.8.81-.043.019-.107-.011-.207-.114.522-.323,1.038-.656,1.569-.966.46-.268.934-.512,1.4-.763.656-.349,1.313-.7,1.974-1.038.851-.44,1.7-.881,2.561-1.3.447-.22.916-.391,1.365-.606.668-.319,1.323-.662,1.989-.983.306-.147.622-.272.939-.393.464-.178.936-.337,1.4-.514.266-.1.522-.226.785-.336.8-.337,1.6-.682,2.415-1,.477-.189.975-.323,1.456-.5.532-.2,1.052-.431,1.582-.638.439-.172.881-.333,1.326-.489.7-.244,1.4-.491,2.1-.714.533-.168,1.083-.283,1.614-.454.623-.2,1.233-.446,1.855-.654.421-.141.852-.254,1.28-.373.637-.178,1.278-.337,1.91-.527.7-.209,1.384-.464,2.085-.661.662-.186,1.344-.3,2.009-.483.8-.216,1.59-.483,2.392-.7.637-.169,1.289-.283,1.931-.435.378-.089.75-.2,1.123-.309.1-.027.191-.071.29-.09.817-.163,1.641-.3,2.454-.487.854-.193,1.7-.433,2.548-.637.251-.06.52-.041.773-.1,1.039-.23,2.07-.5,3.114-.706s2.107-.326,3.155-.52c1.119-.207,2.227-.468,3.344-.683.381-.074.778-.068,1.164-.123.984-.141,1.968-.285,2.948-.45,1.236-.209,2.466-.453,3.7-.655.454-.075.921-.075,1.382-.112.2-.016.4-.034.606-.059,1.19-.145,2.381-.287,3.569-.441,1.692-.22,3.38-.46,5.073-.669.559-.069,1.129-.044,1.689-.106.921-.1,1.836-.266,2.757-.349,1.2-.109,2.4-.155,3.6-.244q2.835-.211,5.669-.445c.837-.07,1.669-.222,2.506-.257,4.589-.193,9.178-.421,13.77-.516,3.215-.067,6.434.037,9.65.107,1.735.038,3.468.16,5.2.255.617.034,1.231.112,1.848.141a.6.6,0,0,0,.427-.176,7.125,7.125,0,0,1,.655-.89,1.145,1.145,0,0,0,.289-1.415c-.325-.9-.675-1.784-1.039-2.665a5.887,5.887,0,0,0-.5-.8l1.826-.033a1.036,1.036,0,0,0-.037,1.323c.108.168.059.427.126.631.044.132.166.329.257.331.121,0,.343-.148.351-.247.059-.66.629-1.292.041-2.054l1.178-.021c-.376.781-.77,1.5-1.069,2.25-.281.709-.458,1.459-.689,2.189-.122.385-.274.761-.385,1.149-.091.314,0,.543.375.582.86.089,1.72.184,2.579.274,1.017.107,2.037.2,3.052.327.411.053.806.217,1.215.3a6.277,6.277,0,0,0,.8.057Z" transform="translate(-214.82 -183.556)" fill="#fff"/>
    <path id="Path_842" data-name="Path 842" d="M377.121,256.283c-.036.277-.044.471-.087.657-.08.337-.207.666-.26,1.007a.6.6,0,0,0,.133.492.541.541,0,0,0,.506,0c.492-.347.952-.737,1.422-1.114a8.428,8.428,0,0,1,1.55-1.223c1.394-.646,2.154-.1,2.552,1.476a1.254,1.254,0,0,1,.011.217c.02.272-.009.576.378.628a.759.759,0,0,0,.853-.5c.3-.653.609-1.307.971-1.927a1.542,1.542,0,0,1,1.226-.8.433.433,0,0,1,.522.347c.164.7.335,1.405.472,2.114a4.807,4.807,0,0,1-.533,2.641c-.089.235-.285.255-.5.114-.351-.228-.711-.443-1.065-.666-.548-.347-.824-.256-1.054.35-.291.768-.291.754-1.123.767-2.057.032-4.114.084-6.171.111a4.117,4.117,0,0,1-.7-.147.747.747,0,0,0-.436-.006,2.164,2.164,0,0,1-1.678.112c-.3-.073-.46-.024-.592.247-.314.646-.611,1.305-.979,1.921a1.224,1.224,0,0,1-1.85.486c-.483-.258-.957-.538-1.419-.832-.132-.083-.21-.251-.389-.476a1.979,1.979,0,0,1,.362.02,1.583,1.583,0,0,0,1.7-.23c.454-.389.972-.7,1.426-1.092a1.72,1.72,0,0,0,.408-.656.673.673,0,0,0,0-.493c-.264-.542-.574-1.061-.848-1.6a.522.522,0,0,1-.036-.4c.164-.351.376-.68.56-1.023.149-.278.289-.239.436-.005.229.364.437.743.688,1.092a1.828,1.828,0,0,0,1.947.629c.358-.057.514-.372.529-.752A1.748,1.748,0,0,1,377.121,256.283Zm3.078,2.2v-.005c.346-.007.692-.009,1.037-.02.326-.011.466-.205.353-.476a1.524,1.524,0,0,0-.988-.608,2.8,2.8,0,0,0-1.541.568c-.112.073-.132.288-.194.438a1.59,1.59,0,0,0,.383.115C379.565,258.506,379.882,258.488,380.2,258.482Zm5.572-.973.212.1c.028-.108.112-.249.072-.318a2.566,2.566,0,0,0-.371-.422c-.091.093-.274.244-.258.27A2.316,2.316,0,0,0,385.771,257.509Z" transform="translate(-256.045 -192.242)" fill="#fff"/>
    <path id="Path_843" data-name="Path 843" d="M404.909,252.747a3.337,3.337,0,0,1,.132.417c.208,1.167.393,2.337.62,3.5.109.558.348.7.925.687.448-.009.9.007,1.345-.029.138-.011.266-.154.4-.236-.092-.13-.156-.306-.281-.379-.222-.128-.489-.174-.718-.293-.116-.061-.286-.245-.262-.308a3.076,3.076,0,0,1,.9-1.587,1.7,1.7,0,0,1,2.506,2.04c-.073.236-.326.525.1.688a.9.9,0,0,0,1.109-.4c.311-.664.616-1.334.984-1.966a1.466,1.466,0,0,1,1.259-.807.541.541,0,0,1,.431.255c.3,1.167.8,2.316.445,3.564-.116.4-.249.8-.4,1.191-.108.287-.3.364-.577.174-.359-.243-.734-.462-1.1-.688-.456-.278-.755-.251-.881.239-.23.892-.808.964-1.569.946-.472-.011-.816-.039-.977-.547a.424.424,0,0,0-.322-.215c-.076-.005-.22.155-.235.255-.069.479-.376.553-.784.545-.55-.011-1.1.007-1.651.023a.983.983,0,0,1-1.18-.921,2.819,2.819,0,0,0-.3-.606,2.548,2.548,0,0,0-.424.581c-.167.457-.3.575-.756.481-.595-.124-1.192-.236-1.774-.4a.522.522,0,0,1-.283-.425c.135-.6.347-1.186.5-1.785a2.8,2.8,0,0,1,1.222-1.4c.454-.36.921-.61.918-1.336a3.68,3.68,0,0,1,.52-1.274Zm-.876,4.393c.577.005.689-.12.622-.6a3.211,3.211,0,0,0-.073-.427c-.089-.317-.313-.37-.539-.131a6.541,6.541,0,0,0-.487.542c-.17.226-.16.439.145.544A1.9,1.9,0,0,0,404.033,257.14Zm9.15-1.536a2.244,2.244,0,0,0-.228.418,1.771,1.771,0,0,0,.47.293c.026.011.187-.177.172-.2A5.32,5.32,0,0,0,413.183,255.6Z" transform="translate(-267.242 -191.394)" fill="#fff"/>
    <path id="Path_844" data-name="Path 844" d="M324.487,253.447a4.062,4.062,0,0,1,.139.466c.206,1.152.4,2.307.61,3.457.1.508.329.674.851.672.246,0,.492-.026.738-.024.683.007.938-.2,1-.892a2.351,2.351,0,0,1,.37-1.438,2.642,2.642,0,0,1,.4-.323,1.547,1.547,0,0,1,.128.452c-.011.405-.076.808-.094,1.213a.89.89,0,0,0,.942.947c.275,0,.55-.011.825-.006a.447.447,0,0,0,.516-.5,6.275,6.275,0,0,0-.764-3.465.322.322,0,0,1-.064-.244c.212-.582.439-1.159.685-1.8.338.435.566.779.846,1.075a8.5,8.5,0,0,0,.742.589c.228.191.221.385.039.638a2.855,2.855,0,0,0-.706,2.352,7.1,7.1,0,0,1-.087,3.145c-.119.478-.26.64-.761.655-.608.018-1.216.032-1.824.033a.75.75,0,0,1-.76-.47c-.053-.122-.218-.274-.326-.27a.46.46,0,0,0-.318.284.664.664,0,0,1-.793.5c-.332-.018-.666,0-1,.013a.981.981,0,0,1-1.125-.887,3.1,3.1,0,0,0-.3-.646,2.708,2.708,0,0,0-.428.629.546.546,0,0,1-.711.444c-.608-.128-1.221-.243-1.817-.412a.516.516,0,0,1-.267-.427c.128-.589.324-1.162.48-1.745.187-.7.77-1.046,1.274-1.463a4.067,4.067,0,0,0,.575-.454,1,1,0,0,0,.267-.6,3.138,3.138,0,0,1,.566-1.494Zm-.156,3.908c-.134-.326-.185-.732-.344-.78-.463-.141-.509.458-.831.634-.08.043-.093.4-.076.406a2.869,2.869,0,0,0,.9.177C324.1,257.787,324.208,257.515,324.33,257.356Z" transform="translate(-239.713 -191.134)" fill="#fff"/>
    <path id="Path_845" data-name="Path 845" d="M348.376,256.685a3.386,3.386,0,0,0,.285.708.692.692,0,0,0,.468.276c.563.026,1.129-.01,1.693-.009.328,0,.508-.149.473-.471a7.586,7.586,0,0,0-.231-1.454,2.488,2.488,0,0,1,0-2.014,2.9,2.9,0,0,0,.105-.551c.023-.084.1-.205.165-.212s.178.08.224.155a1.169,1.169,0,0,1,.1.33q.417,1.772.833,3.543a.705.705,0,0,0,.828.589c.245-.016.492-.014.738-.007.368.01.573-.189.535-.527a7.593,7.593,0,0,0-.432-2.767c-.1-.191-.195-.383-.277-.582-.054-.129-.145-.293-.107-.4.195-.56.426-1.108.678-1.745.143.169.193.23.246.289a9.088,9.088,0,0,0,1.035,1.121c.489.385.56.52.222,1.032a2.909,2.909,0,0,0-.587,2.31,7.247,7.247,0,0,1-.1,3.1.671.671,0,0,1-.706.61c-.723.027-1.448.028-2.172.047-.345.009-.462-.225-.593-.481-.063-.124-.2-.207-.309-.308-.092.114-.231.216-.267.345a.6.6,0,0,1-.674.477c-.637,0-1.275.02-1.912.029-.511.007-.687-.154-.677-.669.014-.753.034-1.506.083-2.257a1.841,1.841,0,0,1,.227-.541Z" transform="translate(-248.881 -190.991)" fill="#fff"/>
    <path id="Path_846" data-name="Path 846" d="M423.853,253.922a10.942,10.942,0,0,0-.036-1.387,2.446,2.446,0,0,1,.469-1.542c.039-.073.159-.1.241-.153a1,1,0,0,1,.166.322c.093.966.165,1.934.254,2.9.055.605.107,1.213.2,1.813.083.531.265.637.8.616.318-.012.641.047.954.01a12.588,12.588,0,0,0,1.649-.292c.139-.036.281-.288.3-.456.011-.085-.247-.291-.383-.291a15.34,15.34,0,0,0-1.719.11c-.235.028-.343-.038-.347-.251a2.613,2.613,0,0,1,.856-2.182,1.139,1.139,0,0,1,1.24-.053c.562.249,1.082.6,1.652.825a4.866,4.866,0,0,0,1.224.241c.416.05.495.287.437.638-.024.143-.047.285-.072.428-.137.772-.26.87-.928.813-1.039-.088-1.538.707-2.063,1.426a8.642,8.642,0,0,1-.919,1.141,1.331,1.331,0,0,1-.777.32c-.75.055-1.506.035-2.258.063-.418.015-.469-.266-.5-.566q-.218-2.244-.426-4.49Z" transform="translate(-274.846 -190.75)" fill="#fff"/>
    <path id="Path_847" data-name="Path 847" d="M338.343,263.846a4.789,4.789,0,0,0,2.531-1.159c.722-.573,1.557-1.064,1.777-2.215a4.839,4.839,0,0,0-.435.385,1.085,1.085,0,0,1-1.221.313.953.953,0,0,1-.645-.889,5.8,5.8,0,0,1,.5-2.785,4.938,4.938,0,0,1,.578-1.056.641.641,0,0,1,1.113-.034,3.751,3.751,0,0,1,.8,2.205,9.453,9.453,0,0,1-.871,4.8,1.551,1.551,0,0,1-1.712,1.058c-.726-.119-1.451-.239-2.176-.368-.074-.013-.138-.085-.206-.13Zm3.593-4.665c.094-.1.387-.339.359-.383a1.239,1.239,0,0,0-.558-.562c-.281-.087-.479.169-.489.467C341.235,259.076,341.529,259.122,341.936,259.18Z" transform="translate(-245.591 -192.551)" fill="#fff"/>
    <path id="Path_848" data-name="Path 848" d="M285.963,229.691c0,.063,0,.087-.005.091-.627.389-.558,1-.527,1.609.049.955.08,1.911.1,2.867a.754.754,0,0,0,.393.758c.08.04.112.172.165.262-.094.053-.185.149-.282.153-.492.025-.985.033-1.477.031-.086,0-.172-.075-.257-.116.046-.079.073-.193.142-.231a.575.575,0,0,0,.279-.621c-.035-.809-.039-1.619-.055-2.429,0-.086.037-.183.01-.258a4.5,4.5,0,0,0-.226-.46,2.371,2.371,0,0,0-.264.425c-.152.416-.267.845-.416,1.263-.236.664-.479,1.327-.741,1.982-.049.122-.206.2-.313.3a1.13,1.13,0,0,1-.228-.28c-.309-.838-.606-1.68-.9-2.522-.091-.259-.161-.526-.264-.78a1.239,1.239,0,0,0-.228-.28c-.076.109-.21.215-.217.328-.023.4,0,.808,0,1.211-.006.431-.028.864-.043,1.295-.016.456-.01.9.661.958l-.046.108c-.1.057-.189.155-.289.163a9.193,9.193,0,0,1-1.042.019c-.093,0-.182-.106-.273-.163.058-.07.12-.139.173-.213.1-.141.261-.279.279-.431.108-.933.186-1.87.268-2.807.024-.274.02-.55.046-.823a1.133,1.133,0,0,0-.7-1.2l.064-.143a7,7,0,0,0,.984-.026c.456-.074.618.194.754.537.346.869.688,1.74,1.054,2.6.061.143.235.237.357.354a1.661,1.661,0,0,0,.345-.382c.236-.535.443-1.083.655-1.628.156-.4.3-.809.456-1.21.041-.1.114-.272.181-.276C285.011,229.7,285.487,229.7,285.963,229.691Z" transform="translate(-225.487 -183.51)" fill="#fff"/>
    <path id="Path_849" data-name="Path 849" d="M385.1,227.926l1.657-.03c0,.06.01.121-.011.137-.646.5-.5,1.182-.478,1.863a6.6,6.6,0,0,1-.288,2.78,1.729,1.729,0,0,1-1.414,1.088,1.974,1.974,0,0,1-1.978-.594,2.6,2.6,0,0,1-.512-1.3c-.078-.9.016-1.821-.041-2.727a4.643,4.643,0,0,0-.4-1.159l2.139-.038c-.952.694-.628,1.584-.639,2.393a5.666,5.666,0,0,0,.266,2.179,1.182,1.182,0,0,0,1.839.464,2.323,2.323,0,0,0,.591-1.652,13.553,13.553,0,0,0-.041-1.993c-.035-.522-.08-1.065-.75-1.262Z" transform="translate(-260.409 -182.896)" fill="#fff"/>
    <path id="Path_850" data-name="Path 850" d="M313.263,234.232c.075.414-.146.922.25,1.328.025.026-.1.293-.166.3a7.656,7.656,0,0,1-1.171.026c-.26-.016-.285-.163-.152-.394a1.428,1.428,0,0,0,.193-.631c.018-.564,0-1.13-.024-1.695a1.107,1.107,0,0,0-.124-.491c-.16-.281-.066-.416.2-.535.4-.178.766-.349,1.14.064.054.06.334,0,.446-.091a.9.9,0,0,1,1.544.411,9.875,9.875,0,0,1,.188,1.885,1.5,1.5,0,0,0,.285,1.058c.172.182.02.339-.183.356a10.139,10.139,0,0,1-1.086.028c-.241,0-.268-.145-.2-.36a4.077,4.077,0,0,0,.2-.891,10.585,10.585,0,0,0-.016-1.26c-.028-.543-.243-.819-.592-.8-.5.025-.752.326-.741.872C313.253,233.67,313.257,233.93,313.263,234.232Z" transform="translate(-236.553 -184.245)" fill="#fff"/>
    <path id="Path_851" data-name="Path 851" d="M391.485,232.737c.077.481-.141,1.016.262,1.451.016.017-.125.263-.207.271a8.054,8.054,0,0,1-1.084.02.417.417,0,0,1-.278-.155c-.029-.038.065-.163.095-.252a2.026,2.026,0,0,0,.166-.556c.012-.593-.01-1.187-.024-1.781a1.073,1.073,0,0,0-.047-.341c-.076-.206-.31-.449.013-.589s.672-.514,1.064-.13c.254.248.442.223.7-.015a.922.922,0,0,1,1.427.289,2.7,2.7,0,0,1,.214.875c.039.475,0,.958.039,1.432a1.743,1.743,0,0,0,.231.717c.168.284.087.416-.2.445a7.9,7.9,0,0,1-1,.025c-.276-.008-.341-.138-.22-.4a1.928,1.928,0,0,0,.191-.717,11.225,11.225,0,0,0-.059-1.56c-.037-.323-.122-.68-.605-.621a.677.677,0,0,0-.7.766C391.473,232.182,391.48,232.457,391.485,232.737Z" transform="translate(-263.334 -183.765)" fill="#fff"/>
    <path id="Path_852" data-name="Path 852" d="M363.209,233.247c.111.479.237.954.322,1.438a.363.363,0,0,1-.213.287,8.4,8.4,0,0,1-1.084.03.355.355,0,0,1-.237-.132c-.022-.028.067-.137.095-.213a2.392,2.392,0,0,0,.22-.659,14.4,14.4,0,0,0-.03-1.607,4.326,4.326,0,0,0-.187-.73c-.023-.09-.077-.2-.044-.272a1.162,1.162,0,0,1,1.2-.2c.208.2.393.283.627.046a.947.947,0,0,1,1.6.514c.094.7.072,1.415.135,2.121a1.376,1.376,0,0,0,.242.635c.175.249.121.4-.143.429a6.778,6.778,0,0,1-1.085.022c-.25-.011-.308-.168-.218-.4a5.962,5.962,0,0,0,.077-2.564c-.015-.279-.246-.368-.516-.32s-.625.033-.654.426c-.026.374.007.752.013,1.128Z" transform="translate(-253.687 -183.945)" fill="#fff"/>
    <path id="Path_853" data-name="Path 853" d="M337.763,233.623a5.676,5.676,0,0,0,.022.779,4.448,4.448,0,0,0,.212.674c.03.089.106.2.075.26s-.165.1-.257.1c-.332.016-.665.016-1,.021-.238,0-.3-.094-.227-.329a4.016,4.016,0,0,0,.191-.94,11.828,11.828,0,0,0-.043-1.473c-.032-.393-.393-.606-.867-.554-.425.047-.376.382-.372.66.008.52.034,1.04.074,1.559a2.554,2.554,0,0,0,.137.666c.089.253.041.409-.232.428-.36.025-.723.027-1.084.018-.084,0-.231-.082-.235-.135-.007-.092.075-.191.117-.288a1.922,1.922,0,0,0,.239-.588,11.81,11.81,0,0,0-.026-1.518,6.263,6.263,0,0,0-.193-.767.516.516,0,0,1,.009-.353,1,1,0,0,1,1.178-.114.382.382,0,0,0,.571,0,.977.977,0,0,1,1.644.6,10.7,10.7,0,0,1,.1,1.295Z" transform="translate(-244.159 -184.114)" fill="#fff"/>
    <path id="Path_854" data-name="Path 854" d="M358.912,233.1a1.89,1.89,0,1,1-3.764.112,2.006,2.006,0,0,1,1.86-2.147A1.882,1.882,0,0,1,358.912,233.1Zm-2.739-.147c.131.525.222.931.335,1.331.095.335.32.622.672.547a.688.688,0,0,0,.587-.748c-.03-.562,0-1.13-.059-1.688a1.746,1.746,0,0,0-.337-.776.455.455,0,0,0-.835.068A9.355,9.355,0,0,0,356.173,232.955Z" transform="translate(-251.344 -183.981)" fill="#fff"/>
    <path id="Path_855" data-name="Path 855" d="M371.952,232.845a2.729,2.729,0,0,0,.02.606,1.679,1.679,0,0,0,.29.662c.247.294.249.469-.095.636-.276.134-.566.276-.849.028a.481.481,0,0,0-.692-.016.914.914,0,0,1-1.1.032.961.961,0,0,1-.493-.95.93.93,0,0,1,.287-.6,3.576,3.576,0,0,1,1.178-.573c.436-.1.419-.406.461-.675.054-.345-.239-.779-.493-.766a.618.618,0,0,0-.381.258c-.118.159-.16.373-.268.542-.143.224-.354.315-.585.12a.323.323,0,0,1,.029-.576,5.276,5.276,0,0,1,1.237-.675,1.065,1.065,0,0,1,1.411.989c.036.315.016.636.022.954Zm-.881.842c-.138-.3-.016-.636-.431-.644a.766.766,0,0,0-.607.646c0,.28.4.742.589.629C370.825,234.194,370.926,233.9,371.071,233.687Z" transform="translate(-256.094 -183.906)" fill="#fff"/>
    <path id="Path_856" data-name="Path 856" d="M344.146,233.326a3.808,3.808,0,0,0,.024.736,1.5,1.5,0,0,0,.3.665c.234.258.185.4-.095.521a.873.873,0,0,1-.938.009.733.733,0,0,0-.621.015,1.036,1.036,0,0,1-1.621-.78,1.062,1.062,0,0,1,.63-.969,5.122,5.122,0,0,0,1.052-.431.788.788,0,0,0-.124-1.305.521.521,0,0,0-.454.138,4.008,4.008,0,0,0-.3.566c-.07.109-.193.241-.3.249a.428.428,0,0,1-.349-.187.469.469,0,0,1,.042-.426,2.171,2.171,0,0,1,1.972-.727,1.273,1.273,0,0,1,.748.93c.029.331.017.665.023,1Zm-.939.721c-.038-.244.089-.593-.331-.616-.288-.015-.614.418-.6.741.016.3.363.717.578.659C343.266,234.719,343.2,234.363,343.207,234.047Z" transform="translate(-246.564 -184.081)" fill="#fff"/>
    <path id="Path_857" data-name="Path 857" d="M307.305,229.319l2.2-.039a2.195,2.195,0,0,0-.224.3,2.329,2.329,0,0,0-.354.83c-.018,1.217.028,2.435.049,3.652,0,.272.033.522.352.625.064.02.157.152.142.178-.043.076-.133.172-.208.176-.535.024-1.072.036-1.608.028-.086,0-.2-.106-.245-.191-.018-.033.086-.186.16-.214.357-.135.393-.4.382-.735-.03-.869-.034-1.739-.053-2.608-.015-.7.139-1.451-.687-1.891Z" transform="translate(-234.934 -183.369)" fill="#fff"/>
    <path id="Path_858" data-name="Path 858" d="M406.959,232.467a2.1,2.1,0,0,1,1.153-2.12,1.318,1.318,0,0,1,2,.944c.093.356-.07.583-.471.6s-.807.062-1.211.091-.516.167-.444.555a1.036,1.036,0,0,0,1.384.908.6.6,0,0,1,.209-.049,3.125,3.125,0,0,1,.385.111c-.065.116-.1.268-.2.341a1.7,1.7,0,0,1-1.91.23A1.639,1.639,0,0,1,406.959,232.467Zm1.486-.717c.395-.12.745-.109.743-.575a.6.6,0,0,0-.58-.622c-.272.014-.723.508-.63.77C408.04,231.5,408.283,231.61,408.445,231.75Z" transform="translate(-269.08 -183.669)" fill="#fff"/>
    <path id="Path_859" data-name="Path 859" d="M375.064,233.531c.522-.381.374-.906.368-1.4-.014-1.127-.028-2.254-.066-3.381a2.834,2.834,0,0,0-.193-.587c-.03-.107-.056-.313-.023-.326a3.963,3.963,0,0,1,.935-.292c.078-.01.278.274.282.426.045,1.546.066,3.092.08,4.638,0,.287.007.543.283.724.034.022-.032.3-.06.3-.508.028-1.018.032-1.527.041Z" transform="translate(-258.162 -182.776)" fill="#fff"/>
    <path id="Path_860" data-name="Path 860" d="M324.806,233.483c-.758-.026-.9.18-.631.822a.975.975,0,0,0,1.357.63c.083-.026.167-.087.245-.079a.452.452,0,0,1,.284.129c.034.041-.016.2-.078.257a1.755,1.755,0,0,1-1.589.487,1.5,1.5,0,0,1-1.207-1.108,2.331,2.331,0,0,1,1.038-2.81,1.43,1.43,0,0,1,2.031,1.083.421.421,0,0,1-.388.486C325.5,233.435,325.122,233.454,324.806,233.483Zm-.04-.351c.36.014.547-.127.554-.406a.741.741,0,0,0-.568-.667.626.626,0,0,0-.61.642C324.127,233.185,324.513,233.072,324.766,233.132Z" transform="translate(-240.359 -184.182)" fill="#fff"/>
    <path id="Path_861" data-name="Path 861" d="M428.685,229.571c-1.015.072-.873.761-.839,1.4.018.331.011.665.02,1,.015.581.151.747.721.9a.725.725,0,0,1,.143.075c-.24.52-1.371.571-1.6.143a2.424,2.424,0,0,1-.321-.867c-.057-.558-.009-1.127-.051-1.689a7.058,7.058,0,0,0-.209-.856.564.564,0,0,1,.022-.378,9.972,9.972,0,0,1,.725-.937.387.387,0,0,1,.325-.122.344.344,0,0,1,.187.282c-.148.572.138.756.641.781a.206.206,0,0,1,.111.062A1.45,1.45,0,0,1,428.685,229.571Z" transform="translate(-275.779 -183.011)" fill="#fff"/>
    <path id="Path_862" data-name="Path 862" d="M363.3,260.191c-.03-.159-.064-.318-.087-.477-.09-.629-.211-1.257-.258-1.889-.087-1.163-.164-2.33-.17-3.5a3.612,3.612,0,0,1,.353-1.149c.027-.076.139-.121.213-.18.074.093.2.176.214.279a8.92,8.92,0,0,1,.165,1.249c.054,1.474.109,2.949.1,4.423a5.283,5.283,0,0,1-.322,1.266Z" transform="translate(-253.958 -191.49)" fill="#fff"/>
    <path id="Path_863" data-name="Path 863" d="M349.332,234.393a1.161,1.161,0,0,1-1.165.383,1.031,1.031,0,0,1-.742-.96c-.026-.65-.022-1.3-.035-1.953a3.429,3.429,0,0,0-.047-.472c-.039-.233-.476-.37-.145-.7a5.822,5.822,0,0,0,.478-.643.65.65,0,0,1,.18-.184,4.634,4.634,0,0,1,.422-.194c.051.139.17.3.14.414-.113.433.071.581.468.618a1.158,1.158,0,0,1,.356.177c-.1.076-.2.193-.31.218a.587.587,0,0,0-.5.694c.02.433.03.867.037,1.3C348.484,234.012,348.5,234.046,349.332,234.393Z" transform="translate(-248.58 -183.503)" fill="#fff"/>
    <path id="Path_864" data-name="Path 864" d="M321.219,234.875a1.27,1.27,0,0,1-1.231.383.825.825,0,0,1-.654-.82c-.031-.665-.016-1.334-.069-2a3.3,3.3,0,0,0-.264-.783c-.028-.078-.109-.187-.084-.225.293-.428.6-.85.914-1.26a.277.277,0,0,1,.27-.02c.085.1.186.259.159.364-.124.5.051.706.559.684.082,0,.168.116.253.178-.082.066-.157.18-.247.193-.5.071-.581.383-.545.815.032.374.02.753.02,1.129C320.3,234.146,320.242,234.806,321.219,234.875Z" transform="translate(-238.938 -183.66)" fill="#fff"/>
    <path id="Path_865" data-name="Path 865" d="M414.733,233.927a1.605,1.605,0,0,1-.415.168c-.375.026-.752.032-1.127.022a.493.493,0,0,1-.327-.147c-.035-.04.057-.194.095-.295a1.445,1.445,0,0,0,.161-.432c.008-.65-.008-1.3-.028-1.952a.571.571,0,0,0-.113-.318c-.281-.351-.126-.508.235-.607.124-.034.238-.156.353-.151.178.009.458.041.51.151.2.421.387.214.6.048.034-.026.053-.082.087-.093.2-.062.468-.216.6-.141a.735.735,0,0,1,.214.58c-.009.277-.207.4-.513.389-.756-.036-.942.164-.92.927q.007.26.011.521C414.166,233.373,414.165,233.373,414.733,233.927Z" transform="translate(-271.092 -183.67)" fill="#fff"/>
    <path id="Path_866" data-name="Path 866" d="M296.772,233.09c-.136-.089-.277-.172-.407-.269-.1-.076-.173-.2-.282-.251a.645.645,0,0,0-.788.272c-.1.243.168.6.492.776a3.923,3.923,0,0,1,1.015.693,1.133,1.133,0,0,1-.6,1.848,4.64,4.64,0,0,1-1.069.058c-.478-.012-.626-.36-.662-.763-.008-.1.1-.208.151-.312a1.464,1.464,0,0,1,.273.164c.172.162.328.34.493.51.306.316.518.117.745-.12.258-.269.076-.459-.109-.62a7.769,7.769,0,0,0-.916-.7,1.183,1.183,0,0,1,.051-2.1,1.1,1.1,0,0,1,1.69.693Z" transform="translate(-230.572 -184.332)" fill="#fff"/>
    <path id="Path_867" data-name="Path 867" d="M330.507,232.154a1.71,1.71,0,0,1,.4-.343.846.846,0,0,1,.61-.106.627.627,0,0,1,.179.559c-.033.155-.256.279-.414.391-.058.041-.169.01-.255,0-.583-.035-.75.125-.739.715.007.376.025.752.018,1.129-.005.323-.057.649.374.758.047.012.106.151.087.2a.26.26,0,0,1-.192.139c-.462.022-.925.043-1.388.031-.241-.006-.208-.143-.119-.33a2.083,2.083,0,0,0,.225-.745,9.349,9.349,0,0,0-.026-1.43,6.209,6.209,0,0,0-.226-.84c-.023-.1-.034-.275.006-.293a2.656,2.656,0,0,1,.883-.308C330.083,231.678,330.255,231.941,330.507,232.154Z" transform="translate(-242.391 -184.19)" fill="#fff"/>
    <path id="Path_868" data-name="Path 868" d="M419.151,233.92c.184-.17.353-.265.422-.408s.1-.392.018-.472a4.349,4.349,0,0,0-.958-.781,1.184,1.184,0,0,1-.041-2.117,1.835,1.835,0,0,1,1.253-.087c.227.051.379.439.564.675l-.12.163a3.672,3.672,0,0,1-.45-.22c-.116-.076-.187-.233-.308-.283a.57.57,0,0,0-.754.251c-.174.342.117.568.368.738s.55.3.819.457a1.136,1.136,0,0,1,.537,1.231,1.058,1.058,0,0,1-.867.917,3.664,3.664,0,0,1-1.1.025c-.451-.063-.625-.328-.612-.79a.8.8,0,0,1,.109-.259,1.244,1.244,0,0,1,.243.137C418.56,233.361,418.844,233.632,419.151,233.92Z" transform="translate(-272.832 -183.612)" fill="#fff"/>
    <path id="Path_869" data-name="Path 869" d="M400.6,230.393c.577-.011,1.1-.024,1.618-.017.026,0,.066.177.073.273.021.3,0,.609.049.907a3.145,3.145,0,0,0,.224.694,2.649,2.649,0,0,0,.235.381c.126-.1.339-.189.364-.314.13-.627.564-1.236.086-1.962l1.136-.02a1.344,1.344,0,0,1-.09.243,13.193,13.193,0,0,0-1.36,3.154,1.728,1.728,0,0,1-.122.366c-.055.089-.181.208-.253.195a.427.427,0,0,1-.264-.233c-.362-.881-.694-1.774-1.069-2.648A8.534,8.534,0,0,0,400.6,230.393Z" transform="translate(-266.905 -183.731)" fill="#fff"/>
    <path id="Path_870" data-name="Path 870" d="M301.362,236.078c-.583.01-1.132.021-1.68.014a1.086,1.086,0,0,1,0-.356,3.11,3.11,0,0,0,.223-.6c.027-.49-.009-.983-.013-1.475,0-.317.041-.637-.258-.876a.385.385,0,0,1,.08-.334,3.6,3.6,0,0,1,.78-.252.339.339,0,0,1,.3.1c.222.489.427.354.67.02a.462.462,0,0,1,.72-.082.49.49,0,0,1,.007.76.733.733,0,0,1-.51.113c-.57-.1-.758.014-.78.586a10.6,10.6,0,0,0,.017,1.6C300.939,235.539,301.164,235.751,301.362,236.078Z" transform="translate(-232.333 -184.338)" fill="#fff"/>
    <path id="Path_871" data-name="Path 871" d="M352.889,232.985c.007.391.022.781.018,1.172,0,.269,0,.52.291.662a.238.238,0,0,1,.1.209.321.321,0,0,1-.213.174,12.159,12.159,0,0,1-1.257.021c-.224-.011-.265-.147-.165-.37a1.98,1.98,0,0,0,.183-.72c.02-.52.005-1.042-.026-1.561a2.845,2.845,0,0,0-.164-.6,1.548,1.548,0,0,1-.072-.226,3.687,3.687,0,0,1,.977-.456c.351-.063.318.276.315.525,0,.2,0,.405.008.608s.007.376.01.564Z" transform="translate(-250.122 -184.054)" fill="#fff"/>
    <path id="Path_872" data-name="Path 872" d="M398.772,232.178a8.691,8.691,0,0,0,.031,1.082,3.487,3.487,0,0,0,.272.728c.034.087.122.209.093.255a.4.4,0,0,1-.27.166,11.088,11.088,0,0,1-1.126.023c-.318-.011-.358-.166-.189-.458a1.333,1.333,0,0,0,.186-.59,10.666,10.666,0,0,0-.029-1.428,5.069,5.069,0,0,0-.227-.79c-.027-.1-.049-.291-.021-.3a6.819,6.819,0,0,1,1.036-.322c.05-.01.21.241.223.381.037.416.026.837.033,1.255Z" transform="translate(-265.835 -183.801)" fill="#fff"/>
    <path id="Path_873" data-name="Path 873" d="M424.684,233.9c-.51.009-1.02.024-1.53.012a.618.618,0,0,1-.074-.337c.3-.175.27-.45.262-.726-.012-.464-.016-.928-.026-1.392-.007-.312.053-.642-.279-.861-.042-.028.012-.214.037-.322.006-.027.072-.041.111-.06.967-.456,1.1-.376,1.114.676,0,.276-.012.553.018.825.081.706-.234,1.482.426,2.088Z" transform="translate(-274.58 -183.597)" fill="#fff"/>
    <path id="Path_874" data-name="Path 874" d="M292.145,234.061a11.4,11.4,0,0,0,.032,1.172,3.268,3.268,0,0,0,.249.7c.033.088.115.2.086.256a.342.342,0,0,1-.254.108q-.542.028-1.086.02c-.09,0-.251-.051-.256-.093a.785.785,0,0,1,.091-.3,2,2,0,0,0,.173-.55c.013-.608,0-1.217-.031-1.824a3.377,3.377,0,0,0-.194-.542c-.03-.121-.045-.341.011-.371a3.043,3.043,0,0,1,.767-.287c.3-.066.411.127.414.405,0,.435.014.869.022,1.3Z" transform="translate(-229.354 -184.417)" fill="#fff"/>
    <path id="Path_875" data-name="Path 875" d="M402.539,250.929c-.154.112-.284.191-.4.292-.379.344-1.284.124-1.305-.379-.013-.321.295-.677.521-.968.044-.057.414.064.57.184.491.381.575.386.946-.12a.407.407,0,0,1,.631-.126c.071.049.137.106.208.155.637.432.649.485.249,1.124a.529.529,0,0,1-.9.156A5.5,5.5,0,0,0,402.539,250.929Z" transform="translate(-266.985 -190.364)" fill="#fff"/>
    <path id="Path_876" data-name="Path 876" d="M323.909,251.928a4.316,4.316,0,0,1-.733.879c-.12.084-.474-.077-.666-.208-.443-.3-.561-.314-.925.122a.418.418,0,0,1-.61.107,2.574,2.574,0,0,1-.515-.394.431.431,0,0,1-.1-.372,3.642,3.642,0,0,1,.5-.756.411.411,0,0,1,.37-.023,1.739,1.739,0,0,1,.366.3c.33.28.537.252.773-.1.27-.4.383-.428.8-.135C323.4,251.516,323.624,251.706,323.909,251.928Z" transform="translate(-239.429 -190.857)" fill="#fff"/>
    <path id="Path_877" data-name="Path 877" d="M433.286,264.438c-.307.408-.543.964-.962,1.213s-.738-.36-1.106-.575c-.14-.082-.307-.387-.258-.474a7.476,7.476,0,0,1,.827-1.143.457.457,0,0,1,.435-.022,9.411,9.411,0,0,1,.912.717C433.193,264.2,433.214,264.3,433.286,264.438Z" transform="translate(-277.294 -195.048)" fill="#fff"/>
    <path id="Path_878" data-name="Path 878" d="M331.848,267.217a7.761,7.761,0,0,1-.563.854c-.045.053-.3,0-.407-.085-.509-.4-.5-.405-.965.023a.379.379,0,0,1-.337.078,5.312,5.312,0,0,1-.616-.47c-.011-.008-.026-.028-.022-.035a4.5,4.5,0,0,1,.439-.833c.057-.072.394-.018.522.082.42.328.428.325.767-.072a.561.561,0,0,1,.509-.15A3.75,3.75,0,0,1,331.848,267.217Z" transform="translate(-242.37 -196.141)" fill="#fff"/>
    <path id="Path_879" data-name="Path 879" d="M398.77,228.139c-.053.449-.229.714-.527.66-.235-.043-.431-.3-.645-.463.2-.213.373-.523.618-.6C398.357,227.689,398.618,228.02,398.77,228.139Z" transform="translate(-265.876 -182.839)" fill="#fff"/>
    <path id="Path_880" data-name="Path 880" d="M292.165,230.248a.5.5,0,0,1-.536.457.461.461,0,0,1-.522-.5.58.58,0,0,1,.547-.608A.637.637,0,0,1,292.165,230.248Z" transform="translate(-229.42 -183.478)" fill="#fff"/>
    <path id="Path_881" data-name="Path 881" d="M424.4,227.92c-.205.145-.395.373-.619.416a.469.469,0,0,1-.546-.485c0-.287.166-.633.5-.591.24.03.45.3.673.459Z" transform="translate(-274.652 -182.677)" fill="#fff"/>
    <path id="Path_882" data-name="Path 882" d="M225.222,225.407c-.391.007-.783,0-1.174.024a1.064,1.064,0,0,1-1.027-.584c-.377-.614-.806-1.2-1.175-1.813-.352-.591-.67-1.2-.977-1.818-.34-.681-.675-1.367-.967-2.069-.31-.745-.575-1.509-.844-2.27-.24-.68-.475-1.362-.68-2.053-.193-.65-.35-1.31-.513-1.968-.2-.825-.4-1.654-.6-2.481-.045-.182-.112-.361-.139-.546-.031-.217.067-.285.3-.288,1.519-.018,3.043.007,4.554-.118a23.464,23.464,0,0,0,3.181-.6c.374-.084.529.013.633.361.316,1.052.6,2.115,1,3.138.512,1.332,1.08,2.645,1.688,3.936a33.973,33.973,0,0,0,1.68,3.158c.663,1.093,1.421,2.13,2.146,3.184.237.343.5.666.756,1,.173.228.091.352-.155.454a17.416,17.416,0,0,1-5.088,1.213c-.865.084-1.733.126-2.6.188Z" transform="translate(-204.092 -176.355)" fill="#fff"/>
    <path id="Path_883" data-name="Path 883" d="M213.524,224.448c-.547-.08-.975-.116-1.39-.21-1.184-.269-2.366-.547-3.542-.849-1.021-.262-2.028-.583-3.052-.835a1.753,1.753,0,0,1-1.225-.946c-.331-.683-.583-1.4-.874-2.108a19.094,19.094,0,0,1-1-4.953,39.543,39.543,0,0,1-.145-4.685c-.007-.633.07-1.268.121-1.9.032-.4.157-.455.543-.344.8.23,1.6.438,2.4.662.632.177,1.258.374,1.891.543a2.353,2.353,0,0,0,.728.1c.389-.023.5.18.547.51.16,1.218.293,2.442.508,3.651a20.706,20.706,0,0,0,.617,2.345c.267.883.549,1.763.871,2.627s.673,1.689,1.046,2.517c.39.865.814,1.716,1.236,2.567C213.01,223.548,213.245,223.941,213.524,224.448Z" transform="translate(-199.017 -175.937)" fill="#fff"/>
    <path id="Path_884" data-name="Path 884" d="M233.98,250.138c-.686-.035-1.38-.012-2.056-.115-1.715-.26-3.438-.5-5.123-.9a28.482,28.482,0,0,1-3.556-1.235,23.828,23.828,0,0,1-4.657-2.481,28.153,28.153,0,0,1-4.973-4.187c-.769-.817-1.517-1.655-2.231-2.52-.486-.588-.9-1.235-1.338-1.862a.724.724,0,0,1-.051-.273c.119-.011.257-.067.353-.026.485.2.945.471,1.44.644a13.374,13.374,0,0,0,1.682.445c.9.187,1.795.382,2.7.5a18.1,18.1,0,0,0,2.252.09,1.091,1.091,0,0,1,.872.349c1.719,1.728,3.439,3.458,5.217,5.125.9.843,1.914,1.564,2.887,2.327.708.554,1.417,1.11,2.155,1.622.466.323.99.561,1.481.848.315.183.611.4.929.575a10.819,10.819,0,0,0,.994.483c.347.148.706.266,1.06.4Z" transform="translate(-201.652 -185.851)" fill="#fff"/>
    <path id="Path_885" data-name="Path 885" d="M210.791,181.526c-.154.45-.279.782-.381,1.12-.293.965-.623,1.922-.855,2.9-.308,1.306-.588,2.623-.787,3.95-.181,1.213-.274,2.443-.337,3.669-.043.858.023,1.722.057,2.583.011.263.026.485-.343.41q-2.126-.43-4.251-.86c-.325-.066-.533-.122-.358-.594.328-.889.5-1.832.8-2.735.247-.765.545-1.516.863-2.254a26.135,26.135,0,0,1,1.144-2.411,24.21,24.21,0,0,1,1.769-2.843c.744-.985,1.625-1.866,2.448-2.791A1.428,1.428,0,0,1,210.791,181.526Z" transform="translate(-199.419 -167.021)" fill="#fff"/>
  </g>
</svg>
