<svg xmlns="http://www.w3.org/2000/svg" width="311.8" height="95.5" viewBox="0 0 311.8 95.5">
  <g id="MSI_Logo" data-name="MSI Logo" transform="translate(-201.138 -391.223)">
    <path id="Path_819" data-name="Path 819" d="M384.026,457.354l14.318-39.49a123.742,123.742,0,0,0-21.4,2.151L363.4,457.354ZM381.582,407.2l-2.748,7.583a124.464,124.464,0,0,1,21.4-2.147l2.751-7.583a123.987,123.987,0,0,0-21.408,2.147Z" transform="translate(109.948 9.372)" fill="#fff" fill-rule="evenodd"/>
    <path id="Path_820" data-name="Path 820" d="M330.791,447.98a110.463,110.463,0,0,0,19.853,1.788c4.462,0,11.892-.525,12.555-6.274.265-2.25-2.174-3.79-6.07-5.934-4.456-2.461-7.885-3.766-11.755-6.358s-5.541-6.665-4.234-10.981c3.909-12.944,22.822-15.167,34-15.167a118.213,118.213,0,0,1,22.473,2.147l-2.62,7.222c-6.722-1.226-31.267-5.393-32.409,4.489-.26,2.253,2.018,3.714,5.917,5.858,4.452,2.458,8.042,3.842,11.913,6.432s5.539,6.667,4.238,10.987c-3.919,12.936-22.824,15.165-34,15.165a118.007,118.007,0,0,1-22.471-2.154l2.615-7.22Z" transform="translate(86.079 9.372)" fill="#fff" fill-rule="evenodd"/>
    <path id="Path_821" data-name="Path 821" d="M344.346,457.354l11.943-32.95c4.7-12.949-17.569-7.787-22.86,6.794l-9.483,26.155H303.321l11.943-32.95c4.7-12.953-17.579-7.782-22.864,6.8l-9.482,26.152H262.292l18.963-52.3c6.568,0,10.119,1.512,13.107,4.447a8.285,8.285,0,0,1,2.142,3.946,68.785,68.785,0,0,1,9.591-4.994,43.226,43.226,0,0,1,16.187-3.4c6.564,0,10.119,1.512,13.1,4.447a8.265,8.265,0,0,1,2.147,3.946,68.879,68.879,0,0,1,9.591-4.994,43.215,43.215,0,0,1,16.184-3.4c6.569,0,10.121,1.512,13.105,4.447s2.912,8.274,1.834,11.24l-13.273,36.613Z" transform="translate(41.437 9.372)" fill="#fff" fill-rule="evenodd"/>
    <path id="Path_822" data-name="Path 822" d="M259.958,421.423c-6.856,7.938-17.762,9.071-25.291,9.4-.854.092-2.555.193-2.994.8a1,1,0,0,0,.356,1.231c8.514,6.011,19.611,1.617,25.441-1.258-6.734,6.043-18.083,7.11-27.777,3.558-1.235-.421-2.027-.549-2.431-.112a1.324,1.324,0,0,0-.047,1.538c2.721,5.075,4.687,8.992,11.607,11.185-8.032-.471-13.07-8.1-14.258-12.181-.111,6.831,5.838,11.532,8.282,14.243-3.2.119-6.314.367-7.673,2.761-.961,1.513-.934,3.709-2.263,5.707-3.716-6.947-6.67-16.652-3.89-25.13,2.094-6.393,5.813-12.406,14.541-16.147a66.433,66.433,0,0,0-6,7.611c-1.495,2.785.341,3.776,2.406.2,2.884,6.964,23.568,2.79,29-3.845l1.971-.825-.976,1.26ZM246.876,481.65a1.1,1.1,0,0,1,1.223-.394,1.242,1.242,0,0,1,.733,1.911c-.639.871-1.694,1.495-2.389,2.337a4.229,4.229,0,0,0-.632,1.22H245.8c-.2-1.715-.206-3.587,1.074-5.073Zm-9.658-3.021a1.545,1.545,0,0,1,1.86.022,1.843,1.843,0,0,1,.324,1.892,8.654,8.654,0,0,1-1.85,1.4,6.05,6.05,0,0,0-2.531,2.441,9.43,9.43,0,0,1,.723-3.754,4.887,4.887,0,0,1,1.475-2Zm22.98-1.191a1.059,1.059,0,0,1,.978.111,1.363,1.363,0,0,1,.584.918,13.034,13.034,0,0,0,.486,2.458,9.824,9.824,0,0,0,.512.961,5.14,5.14,0,0,1-1.948-1.307,4.125,4.125,0,0,1-1.21-1.971,1.043,1.043,0,0,1,.6-1.169Zm-30.1-4.6a1.463,1.463,0,0,1,1.565.342c.431.435.245,1.018.208,1.522-.017.347-.346.619-.7.8-.986.465-2.115.894-3.088,1.377a4.34,4.34,0,0,0-1.577,1.315,8.442,8.442,0,0,1,.881-2.563,6.056,6.056,0,0,1,2.716-2.788Zm40.873-6.784c-.086-.428.325-.782.752-.986a5.013,5.013,0,0,1,2.151.733,3.843,3.843,0,0,0,1.278.277,5.2,5.2,0,0,1-2.765.827c-.617-.02-1.325-.33-1.416-.851Zm-46.862-3.679a1.228,1.228,0,0,1,.916.015,1.365,1.365,0,0,1,1.057,1.367c-.047.612.045,1.366-.679,1.768-1.314.763-2.921,1.191-4.107,2.094a4.39,4.39,0,0,0-1.037,1.057,9.774,9.774,0,0,1,2.032-4.872,5.806,5.806,0,0,1,1.819-1.429Zm16.964-6.652a10.067,10.067,0,0,1,3.04-.648,4.718,4.718,0,0,0-2.339,1.3c-.2.289-.4.706-.055.976.388.2.9.134,1.3.305.4.247.258.7.2,1.037a10.1,10.1,0,0,1-1.532,3.11,1.043,1.043,0,0,0-.242.743c.31.042.53-.2.76-.327a13.072,13.072,0,0,0,2.565-2.063c.3-.372.758-.706.81-1.169.072-.376-.6-.48-.649-.814A3.156,3.156,0,0,1,246.586,457c1.466-.575,3.6-.441,4.516.731a11.729,11.729,0,0,0-2.214-.6c-.406-.022-.862.151-.946.485-.092.424-.037.859-.139,1.287a5.643,5.643,0,0,1-3.112,3.721,6.279,6.279,0,0,0-1.671.834,1.425,1.425,0,0,0-.528,1.032,3.8,3.8,0,0,0,1.166.156,5.81,5.81,0,0,0,2.609-.185c.765-.294,1.065-1.018,1.862-1.283a4.858,4.858,0,0,1,5.529,1.72c-.636-.3-1.174-.726-1.854-.976a2.429,2.429,0,0,0-2.131.265,5.229,5.229,0,0,0-1.366,1.585.851.851,0,0,1-.6.475c-.537-.017-1.027-.354-1.579-.213-.76.2-1.434.562-2.2.75a3.781,3.781,0,0,1-1.605,0,17.653,17.653,0,0,0-2.808-.45,1.607,1.607,0,0,0-1.221.349,2.479,2.479,0,0,0-.384,1.463,21.49,21.49,0,0,1-.82-3.657,17.382,17.382,0,0,1-.156-4.633,4,4,0,0,1,.676,2.1.871.871,0,0,0,.728.8,1.847,1.847,0,0,0,1.367-.874,3.76,3.76,0,0,0,.943-2.5c.012-.406-.632-.419-.861-.708a1.54,1.54,0,0,1-.22-1.652,2.616,2.616,0,0,1,1.513-1.287Zm35.322-2.013c.027-.319.483-.411.822-.394a17.92,17.92,0,0,0,1.9-.018,3.582,3.582,0,0,1-1.879,1.085c-.5.086-.955-.285-.842-.673Zm.463-7.849a8.256,8.256,0,0,0,1.362-.627,2.1,2.1,0,0,1-1.147,1.359.382.382,0,0,1-.215-.731Zm-22.691-8.121c.631,2.412,1.5,4.649,4.332,5.543,2.635.835,6.44.247,9.339-.013,2.4-.082,4.62-.527,6.4.715a5.131,5.131,0,0,1,1.691,2.218,23.116,23.116,0,0,1,1.111,2.536,2.934,2.934,0,0,1-.319,2.4,7.1,7.1,0,0,0-1.245,3.161c-.124,1.079-.347,2.147-.544,3.218a11.612,11.612,0,0,1-1.017,3.223,32.714,32.714,0,0,1-2.079,2.543,16.811,16.811,0,0,0-2.166,4.654c-.431,1.255-.6,2.55-.961,3.817a4.238,4.238,0,0,1-2.132,2.775c-1.758.931-3.957,1.166-5.838,1.9a17.517,17.517,0,0,0-4.278,2.823c-1.08.825-2,1.765-3.572,1.99-2.884.441-3.617-1.855-8.826-.025a2.34,2.34,0,0,1-1.976-.092c-1.241-.6-1.382-2.3-2.775-3.04-1.386-.674-3.073-.686-4.618-.983a2.287,2.287,0,0,1-1.627-1.053c-.443-.906-.455-1.9-.844-2.817-1.008-2.05-4.32-2.714-5.269-4.6-.961-1.974.339-3,.347-4.592-.1-2.115-1.528-3.181-4.33-3.28a16.8,16.8,0,0,0,2.647-6.491,4.376,4.376,0,0,1,1.483-2.382,11.45,11.45,0,0,1,3.04-1.015,6.248,6.248,0,0,1,3.55.168c2.649,1.454,2.043,5.283.646,6.85-1.9,2.151-6.678,1.725-5.853-1.652.983.834,1.936,2.1,3.307.6a.669.669,0,0,0,.154-.523,2.069,2.069,0,0,0-1.361-1.366,1.867,1.867,0,0,0-1.23-.116,4.578,4.578,0,0,0-2.823,2.3c-1.072,2.114,1.246,3.8,3.924,3.4a10.458,10.458,0,0,0,5.251-2.833,45.653,45.653,0,0,0,.232,7.47,20.415,20.415,0,0,0,1.891,6.024,8.428,8.428,0,0,0,4.288,3.808,17.412,17.412,0,0,0,6.642.84,32.717,32.717,0,0,0,12.718-3.295c5.018-2.651,5.736-4.773,8.192-8.93a46.551,46.551,0,0,0,2.855-6.4,18.665,18.665,0,0,0,1.352-6.511,5.71,5.71,0,0,0-1.2-3.793c-2.2-2.776-6.875-1.6-11.2-1.723a1.794,1.794,0,0,0-.032,2.1c1.06,1.139,3.627.966,5.35,1.1-7.395,3.01-14.015-.275-15.85-6.083,1.538,1.929,4.03,5.851,7.8,4.69,1.374-.414.747-1.387.305-2.136-.107-.263-.589-.268-.866-.366a5.6,5.6,0,0,1-4.009-6.752ZM230.444,436.5c.557.431.74,1.02,1.3,1.453,5.232,3.984,9.852,3.966,16.526,4.189-5.913,1.449-13.451.559-17.662-3.431A6.073,6.073,0,0,1,229.261,437c-.305-.923.515-1.025,1.183-.5Zm24.753-1.1c5.348-.292,10.815,1.731,12.533,6.92-.706-.772-3.617-1.454-4.709-1.189a.743.743,0,0,0-.631.49c-.116.461.159.822.337,1.246-2.934.336-5.061-.644-6.378-2.528a9.038,9.038,0,0,0,2.07.842,4.137,4.137,0,0,0,3.709-1.245c.522-.569.188-1.293-.428-1.73-2.24-1.661-4.135-1.852-6.5-2.807Zm5.469-9.656c.695-.518,1.292-1.106,1.949-1.651-2.991,4.556-10.263,8.161-15.991,9.176-2.889.577-9.21,1.329-11.869-.131-.292-.154-.589-.5-.317-.763a2.976,2.976,0,0,1,1.676-.262c1.126.107,2.32-.029,3.451-.025a51.352,51.352,0,0,0,8.769-.842,30.99,30.99,0,0,0,12.332-5.5Zm-54.087-16.536a4.021,4.021,0,0,1,2.471.279,4.555,4.555,0,0,1,1.912,1.87c.213.347.455.753.287,1.139-.255.059-.528.082-.783.149-.218.211-.148.507-.143.758a11.9,11.9,0,0,0,1.314,3.689,1.189,1.189,0,0,0,.416.438c.223-1.4-.138-2.781.438-4.15.1-.2.215-.455.517-.5.488-.005.859.408,1.357.331.414-.193.351-.646.317-.968-.129-.835-.956-1.424-1.5-2.1a6.971,6.971,0,0,1,2.865,2.854,1.476,1.476,0,0,1-1.679,2.2,2.963,2.963,0,0,0-.538,2.974c.07.252.128.695.58.659a9.47,9.47,0,0,0,2.3-1.223c-1.782,2.208-3.3,3.429-4.494,6.138a5.419,5.419,0,0,0-.02-1.711,1.383,1.383,0,0,0-.775-.71c-.884-.436-1.907-.664-2.8-1.079a6.39,6.39,0,0,1-2.015-1.988c-.369-.451-1.092-.21-1.543-.572a6.08,6.08,0,0,1-.2-1.349c-.133-.695-.173-1.624-.946-2.079a5.434,5.434,0,0,0-2.768-.461v-.022a4.2,4.2,0,0,1,5.182,1.241c.49.559.384,1.3.857,1.865a5,5,0,0,0,1.366.965,5.43,5.43,0,0,0,1.714.78,2.032,2.032,0,0,0-.461-1.943,5.73,5.73,0,0,1-1.4-3.167,3.344,3.344,0,0,1,.383-2.231c.186-.359.525-.78.221-1.159-.533-.627-1.589-.685-2.426-.914Zm33.09-12.743a89.705,89.705,0,0,0,8.133,4.788c-.575.461-1.25,1.164-2.016,1.151-1.686-.612-5.336-4.464-6.116-5.939Zm3.5-5.232.052-.008A34.408,34.408,0,0,0,255.8,401.6a10.606,10.606,0,0,0,4.513,1.3c.938.072,1.827-.554,2.758-.559a5.253,5.253,0,0,1,2.956.991.939.939,0,0,1,.45.619,5.244,5.244,0,0,0,1.5,3.031,2.878,2.878,0,0,0,2.394.334,1.815,1.815,0,0,0,1.267,1.429c.726.144,1.332-.6,2.11-.389.32.423.5.827.839,1.25.3.287.81.366,1.161.612a7.037,7.037,0,0,1,2.786,3.2,7.513,7.513,0,0,0-2.921-2.3c.052,1.813-.067,4.365-1.317,5.331a6.182,6.182,0,0,0-.686-3.343c-1.065.775-2.147,1.872-3.543,2.125.535-.654,1.6-1.379,1.257-2.2a2.8,2.8,0,0,0-2.193-.3,7.635,7.635,0,0,0-3.1,1.656,14,14,0,0,0-.718-1.8c-.654.109-3.016.9-2.349,1.948,1.027,1.273,2.677.775,3.659.963a2.634,2.634,0,0,1,1.448,1.28c.057-.483.1-.966.174-1.444a32.591,32.591,0,0,1,2.783,3.9c1.179-.525,1.423-1.072,1.565-2.589a4.072,4.072,0,0,1,.545,2.253,2.406,2.406,0,0,0,.75-.988c.443,2.057-.045,5.179-2.954,6.11.533-1.374.738-2.565-1.111-2.567a39.892,39.892,0,0,0-4.541.706c.56-.3,3.05-1.7,2.615-2.518a1.592,1.592,0,0,0-.921-.557,13.4,13.4,0,0,0-2.768-.929c-.476-.074-.9.277-1.307.445-2.411-1.147-3.26.273-4.977.53a4.626,4.626,0,0,1-4.313-2.015c-1.923-2.994.955-4.825,3.4-5.59-3.216-.374-4.519.726-5.286,3.939a28.549,28.549,0,0,0-4.219-.919c-10.7-1.564-19.17,1.594-24.08,6.816a29.692,29.692,0,0,0-7.626,19.163c-.139,6.913,1.976,10.97,5.556,17.014-5.187-4.253-7.492-9.609-9.029-13.177-.654.753-.445,1.693-.629,2.552-3-4.087,1.169-14.385,3.149-19.007-1.567.726-2.515,2.028-3.647,3.1-.188-5.843,4.971-11.763,10.248-16.529a15.774,15.774,0,0,0-4.315,1.589c5.053-5.34,14.3-8.417,22.644-8.729a43.749,43.749,0,0,0-6.383-1.142c6.516-1.35,10.988-1.4,15.385-4.32,2.048,1.332,4.439,2.684,5.612,2.327-3.52-2.515-9.97-8.381-11.223-12.968Zm19.259,13.9a11.536,11.536,0,0,0,1.3,1.5,2.366,2.366,0,0,0,2.318.74,4.8,4.8,0,0,0-.612-1.413.892.892,0,0,0-.636-.319c-.8-.139-1.567-.364-2.367-.507Z" transform="translate(0 0)" fill="#fff" fill-rule="evenodd"/>
  </g>
</svg>
