<svg xmlns="http://www.w3.org/2000/svg" width="1934.363" height="144.324" viewBox="0 0 1934.363 144.324">
  <g id="Group_154" data-name="Group 154" transform="translate(6.792 -1078.114)">
    <rect id="Rectangle_146" data-name="Rectangle 146" width="1920" height="51" transform="translate(0 1143)" fill="#020202"/>
    <rect id="Rectangle_147" data-name="Rectangle 147" width="1920" height="51" transform="translate(0 1092)" fill="#63f"/>
    <path id="Path_10" data-name="Path 10" d="M1951.864,42.473c-.971,9.594-26.091,6.807-32,6.644-14.974-2.846-31.758,2.54-46.27-1.827-10.729-3.5-20.217-7.854-31.4-7.516-9.3,8.086-19.453-1.66-28.417,1.186-6.2,1.526-12.063,8.426-18.39,5.471-2.143.482-2.83.216-4.716,1.237-1.26-.324-1.846-1.147-3.422,3.075-4.2-3.688-14.079.195-18.38.082-6.124,1.387-10.908.152-16.321-3.509-5.354-3.027-7.75-9-14.456-3.478-4.451-4.171-21.463-3.749-25.834.77-2.415,6.224-1.021,4.173-2.144,6.126-1.352,1.864-4.3,5.543-7.4,5.256-8.568,5.251-23.329,6.061-32.963,1.152-12.839,4.114-28.269,7.237-40.855.514-4.312.166-4.523-2.258-9.072-8.9-3.451-7.535-7.49.48-11.146-.87-6.214.673-17.24-.344-22.745-.992-5.488-4.709-5.791-3.455-12.452-5.977-14.045-2.384-28.312.652-41.677-1.885-8.814-2.327-19.465,1.827-28.56-.616-11.539-13.463-28.248,7.209-37.012-4.676-3.148-3.839-4.957-10.359-9.444-6.555-2.6.922-5.2-2.6-7.809-3.762-9.928-1.068-15.41,7.691-24.889,3.484-4.474,7.846-9.106,1.957-13.637-.162-6.045-1.79-14.156-.571-19.968-.474-4.517-4.446-7.02-2.061-12.082-5.975-3.954-2.3-7.913,1.917-11.937-.522-11.387-.819-23.114,8.442-34.723,2.249-9.444-4.207-19.613-7.544-29.462-6.731,1.422,11.653-35.112-2.014-42.789,6.354-11.819,5.693-23.422-5.244-35.047-5.238-10-10.667-19.488,2.3-29.751-1.821-7.331-2.07-12.147-1.994-18.675,2.181-3.684,3.29-1.684,2.6-5.865,2.28-1.122,10.554-3.358,1.262-4.688-.063-6.294,5.041-13.685-2.7-19.831.092-4.554-3.315-8.049-.949-11.922-5.887-6.962,1.8-14.141-4.365-22.365-5.71-11.593.193-23.1,2.813-34.051-1.954-9.151-4.186-19.189,3.5-28.084,3.933-4.851,4.305-6,1.849-10.083,3.18-2.278-.675-4.071,6-6.671,1.4-6.178-2.4-12.469-3.434-18.635-.178-5.9,6.8-12.291-3.122-18.179-.308-6.886-11.882-12.4,4.1-19.036,4.783-12.167-2.56-25.3-4.4-37.537-.258-4.962-1.4-10.928.474-15.72.4-5.157.1-5.748,4.852-9.68,7.638-8.163,6.859-22.7-5.233-31.862.654-4.651-2.924-7.212,5.978-12.3,2.271-8.646,2.768-7.827,1.121-14.278,5.826-7.134,7.613-21.474,1.5-28.833-.877-5.824-7.258-8.51-3.41-11.145-5.621-2.715-.979-2.94-5.309-8.061-9.878-4.274-.85-7.82-10.1-13.565-7.871-6.58-4.335-10.794,2.2-15.728,2.1-7.782,8.164-19.74,1.2-28.039.083-11.434-2.326-22.837,1.332-34.266-.137-8.062,4.815-16.177.238-24.266-.117-4.508.576-12.872-2.192-12.672,4.1-8.259,3.319-17.855,1.491-26.322.62-.635,4.733.8,9.346-.255,10.562-7.938-3.635-15.393,7.8-23.615,4.928-5.755,1.149-11.643-6.129-17.381-.177-13.187,1.849-26.417-3.7-39.6-.158-5.218.752-8.573.978-13.055,2.4-6.8,2.572-11.007,9.435-19.021,4.253-7.269,1.6-14.506-2.382-21.557-1.234-8.579-.106-5.717,3.321-11.765,3.528-4.3,5.412-13.061-2.791-17.713-.242-8.059-7.96-16.132,4.711-24.175-.049-6.9-2.483-7.382-1.983-12.629-6.771-5.248,3.259-12.736-2.423-19.064-4.7-6.973-4.44-12.474,1.465-19.433-2.832-4.65,1.357-6.481-5.989-11.049-.331-3.294-.48-4.558,1.728-7.349,6.037-3,8.841-4.119,4.213-8.032,1.5-4.57,2-9.189-2.249-13.762-.091-5.186-4.648-10.29,6.36-15.485-.062-4.959,3.328-11.544-5.29-16.011-5.173-4.285-2.086-7.031-.833-11.519,5.315-5.307,2.641-7.691,7.419-13.421,0-11.35-5.243-19.481-3.045-32.963-7.212-9.081,2.674-18.211-3.867-27.286-.125-7.883,2.009-13.985-8.223-21.542-2.39-6.32-.707-12.695,1.3-19.026-.024-6.044.98-12.111,4.934-18.186-.021-4.049.107-10.586,2.437-14.074-2.193-9.707-9.163-15.891-10.156-26.8-11.571-5.419-.572-10.961-5.074-16.255-.587-4.286,4.407-8.661-1.828-13.081-4.178-10.539-3.41-23.157-1.44-29.4,6.726C89.875,22.4,78.941,21.829,66,21.378c-6.181-3.915-11.121,2.395-17.007,2.244-1.435-4.243-3.8-2.12-5.029-.247-2.385.345-1.948.789-3.736,3.266-4.49,3.092-9.048,5-13.813,5.006-4.705.013-11.518,26.25-3.754,25.429,4.36,1.719,14.167-3.977,18.493.186,6.84,1.267,11.219,8.312,17.5,3.434,6.656,3.3,13.385,5.506,19.822-.2,7-2.647,11.7-17.6,19.428-9.72,11.3-.17,18.287-1.29,27.229-8.485,9.208-7.345,23.643.394,34.163,5.143,9.6,1.182,19.791,7.114,29.817,1.2,10.069,2.424,20.017,1.686,29.208,3.569,10.757,8.864,21.265,12.9,33.46,10.087,11.144-1.976,20.953-6.477,32.451.648,5.252-6.576,9.3-.266,14.6,2.135a286.452,286.452,0,0,1,33.389,7.225c8.893,2.543,13.9,14.214,22.339,13.159,6.339,11.023,13.409-4.726,19.867.2,6.619-3.111,11.7,1.282,18.626,5.061,5.85-5.924,12.244,2.325,18.164-.171,11.517.855,28.518,3.371,38.681-2.548,3.256,3.05,5.192,2.628,8.888-5.959,4.58.07,10.493,5.371,15.208-.222,5.95.032,8.282-8.05,13.944-4.6,2.684-4.095,5.207-.338,7.9-.271,1.227-.159,3.655,3.514,5.525-4.725,4.76-.24,11.37,4.079,16.416-3.251,4.246-2.861,8.07-8.314,12.535-2.138,5.291,4.932,6.726,11.69,13.051,8.435,3.92-.925,6.3-2.924,9.09-6.911,6.184-8.908,15.425-.8,22.889-2,14.9-3.061,29.877-7.115,44.831.163,3.763-1.34,6.74.346,10.375-.831,5.424-5.9,5.164-2.778,11.235-6.121,10.266.619,21.053,7.853,31.475,2.7,5.714-8.164,10.613-.655,16.477-2.306,3.55,3.339,8.025,2.966,11.229-.681,4.044-3.723,3.137,1.137,5.37-2.725,3.873-4.174,17.561-5.068,24.692-2.444,6.424,8.428,12.791,4.874,19.147.057,9.267-3.487,16.189-1.183,23.994,5.074,4.68,12.67,6.769,3.383,11.705,6.448,4.558-2.5,7.608,6.567,11.685,5.125,7.09,5.445,15.2-7.748,24.617-.567,9.391,2.27,19.145,5.442,27.606-.539,10.622,1.96,21.385-1.349,31.523-2.134,5.085-6.437,4.84-4.648,10.441-2.095a36.729,36.729,0,0,0,12.214-4.208c7.529,7.91,17.027,5.7,24.889-.287,7.6,2.709,15.271.36,22.839-.016,10.16-3.14,21.25,3.513,32.26,4.569,10.977-5.174,23.872-.532,33.869,3.008,3.09-4.835,5.186-1.908,7.917-6.29.623,3.9,4.943-3.843,5.25-4.615,6.192-4.9,12.186,1.938,17.932,1.75,7.78,2.251,14.058-4.237,21.072,4.808,5.173,2.133,8.333-1.922,14.817,3.792a38.087,38.087,0,0,0,19.586-2.449c6.452-.472,9.684-.3,14.935,4.456,3.106,5.76,3.117,7.845,7.518,2.4,4.586,3.765,9.159-12.615,13.7-8.531,6.168-3.539,13.7-.176,20.453-1.453,9.175,2.165,18.724,11.5,28.224,2.249,9.54-2.27,19.171,2.883,28.516-.265,3.816,6.421,12.236,6.37,15.423,11.927,3.149-2.622,2.95-2.651,6.213-9.079,3.22-10.61,9.873-10.432,13.988-2.077,5.636.138,9.169.084,15.166,2.48,7.068,8.726,14.247.551,21.234.32,7.2.694,11.63-.464,18.328-4.311,9.94-4.086,15.694,2.215,23.273,7.192,4.517,6.113,5.146,2.847,10.34,4.92,3.409,5.12,5.883-11.83,9.421-6.718,5.987-2.073,13.81,6.15,20.067.471,6.232,2.137,9.953-1.539,15.459-2.406,3.914,1.271,6.019-4.907,9.059,3.014,4.967,8.131,4.928-5.9,10.883,4.157,7.363-7.516,15.2.073,22.667,0,3.784,4.332,8.027-1.626,11.771.143,5.92.837,3.12-1.438,7.738-4.083,5.524-5.674,10.883-10.842,18.094-2.69,5.27-4.934,10.585-1.835,15.895.072,4.151,1.129,8.481-.48,12.544.437,3.8-2.934,7.542,2.832,11.654,4.858,4.1,5.581,8.4-.991,12.477,2.453,7.231-2.227,12.683,7.361,19.9,10.132,7.249,10.333,15.138.455,22.5.839,5.849,4.691,10.05-1.08,15.951,6.071,3.579-10.951,7.191,2.464,10.641,1.529,2.233-.509,4.688,9.3,7.223,3.732,2.227,3.309,4.8-6.195,7.094-.33,7.1-.809,9.4-.158,14.806,7.031,11.455,6.463,24.852,15.059,38.932,6.868,7.354,1.528,14.685-.479,22.034.088,10.047,4.078,20.045-1.255,30.078.061,10.049,3.58,20.057.16,30.083.176,5.924-1.611,9.987-4.082,15.374-2.246,4.08-1.773,8.765,3.7,12.9.267,7.617,2.342,18.23,4.314,24.573-6.355,2.776-3.827,3.51-8.5,5.983-5.317,1.555,2.509,3.086.156,4.606-4.175,2.568-5.7,3.692-9.165,3.385-6.97,8.083-7.457,30.717-.495,43.246-4.638,9.058-1.395,18.005-4.109,27.786-1.475,5.455,3.5,8.191-3.16,13.17-4.252,7.046-1.327,15.73,3.212,22.9-.291,9.917-1.834,19.725,5.069,29.481,1.242C1951.855,77.179,1951.873,44.083,1951.864,42.473Z" transform="matrix(1, -0.017, 0.017, 1, -25.999, 1108.096)" fill="#fff"/>
  </g>
</svg>
