<svg xmlns="http://www.w3.org/2000/svg" width="546.549" height="180.325" viewBox="0 0 546.549 180.325">
  <g id="RANK_UP_Logo" data-name="RANK UP Logo" transform="translate(302.835 -539.31)">
    <g id="Group_6" data-name="Group 6" transform="translate(-302.835 539.31)">
      <g id="Group_2" data-name="Group 2" transform="translate(372.002)">
        <path id="Path_1" data-name="Path 1" d="M-115.777,666.323c.3,27.662-8.947,42.537-26.32,42.537a45.43,45.43,0,0,1-16.292-3.467c-27.811-10.7-43.394-36.945-43.767-72.287l-.895-89.845,29.936,11.519.895,88.653c.112,11.147,3.5,19.833,13.458,23.636a14.613,14.613,0,0,0,5.219,1.156c5.89,0,7.9-5.7,7.829-14.614l-.932-88.652,29.973,11.519Z" transform="translate(203.05 -528.534)" fill="#fff"/>
        <path id="Path_2" data-name="Path 2" d="M-176.04,565.55l.895,88.616c.074,6.934-1.3,9.1-1.9,9.693a1.946,1.946,0,0,1-1.566.522,10.229,10.229,0,0,1-3.653-.857c-7.27-2.8-10.55-8.836-10.662-19.647l-.895-88.615-.037-.746,3.728-1.006h.149l34.745-10.439.112,10.252-20.989,5.816Z" transform="translate(228.121 -529.052)" fill="#fff"/>
        <path id="Path_3" data-name="Path 3" d="M-134.472,549.487l-33.59,10.1-6.114,1.6-28.184-10.812,8.947-2.386,31.912-8.686Z" transform="translate(204.932 -539.31)" fill="#fff"/>
        <path id="Path_4" data-name="Path 4" d="M-100.37,552.884a45.374,45.374,0,0,0-9.171,1.939l-46.936,14.166-1.789.522-29-11.147,47.943-13.272a40.2,40.2,0,0,1,7.978-.783,54.231,54.231,0,0,1,15.62,2.5A102.743,102.743,0,0,1-100.37,552.884Z" transform="translate(246.098 -525.67)" fill="#fff"/>
        <path id="Path_5" data-name="Path 5" d="M-114.1,547.71a40.287,40.287,0,0,0-11.706,1.976l-46.973,14.2s1.64,59.649,1.379,96.221c-.186,20.877-9.134,31.316-9.432,31.651.373-.149,15.285-5.48,25.8-17.745,8.463-9.879,12.9-27.4,12.9-27.4l15.024-4.809c23.151-7.27,37.989-32.509,37.989-59.35C-89.12,560.534-98.179,547.71-114.1,547.71Zm-15.658,59.313-11.967,3.765v-23.71l11.967-3.728a12.094,12.094,0,0,1,3.579-.634c4.138,0,6.561,3.057,6.561,9.283C-119.616,599.865-123.456,605.047-129.756,607.023Z" transform="translate(263.667 -516.394)" fill="#fff"/>
        <path id="Path_6" data-name="Path 6" d="M-155.786,563.191c0,5.741-2.386,9.395-7.083,10.886l-6.3,1.976V561.476l8.91-2.8a8.176,8.176,0,0,1,2.274-.41c.932,0,1.156.3,1.3.522C-156.42,559.165-155.786,560.32-155.786,563.191Z" transform="translate(295.476 -487.586)" fill="#fff"/>
      </g>
      <g id="Group_5" data-name="Group 5" transform="translate(0 27.166)">
        <g id="Group_3" data-name="Group 3" transform="translate(1.536 1.536)">
          <path id="Path_7" data-name="Path 7" d="M-200.417,547.009-228.2,629.093c-1.148-1.991-1.487-3.966-1.819-8.067l-.928-12.142c-.693-9.484-3.929-15.151-11.564-18.04,8.213-3.24,12.374-9.831,12.374-19.666,0-12.835-6.938-24.169-31.688-24.169h-40.594v82.345h26.137v-26.83h9.022c7.751,0,10.177,2.427,10.524,10.293l.347,8.209a20.389,20.389,0,0,0,1.622,8.329h52.617l3.24-10.755h29.608l3.24,10.755H-139L-168.5,547.009Zm-65.461,36.546h-10.409V567.133h10.409c5.9,0,9.022,2.543,9.022,8.209S-259.979,583.555-265.877,583.555Zm72.514,15.96,5.667-18.969,3.471-12.258c1.04,4.049,2.311,8.209,3.471,12.258l5.667,18.969Zm109.176-52.506H-58.74v82.345H-85.921l-17.347-29.261c-2.893-4.858-5.435-9.249-7.751-13.764.347,9.715.462,19.084.462,29.608v13.417H-136V547.009h27.181l17,29.261c2.543,4.392,5.32,9.943,7.978,15.5-.347-10.293-.347-20.128-.347-31.346Zm118.66,82.345H4.633l-18.159-30.879-9.831,11.564v19.315H-49.494V547.009h26.137v32.266L2.2,547.009H32.388l-28.8,33.653Z" transform="translate(302.423 -547.009)" fill="#fff"/>
        </g>
        <g id="Group_4" data-name="Group 4">
          <path id="Path_8" data-name="Path 8" d="M-227.816,632.014h-26.8l-.418-.876A21.71,21.71,0,0,1-256.8,622.2l-.347-8.2c-.313-7.091-2.08-8.82-8.992-8.82h-7.486v26.83h-29.209V546.6H-260.7c27.461,0,33.224,13.98,33.224,25.7,0,9.223-3.46,15.818-10.3,19.654,5.868,3.314,8.828,8.988,9.484,17.939l.924,12.138c.108,1.312.213,2.367.339,3.251L-200.4,546.6h34.1l29.88,83.433V546.6h29.6l17.443,30.026c1.461,2.524,3.068,5.536,4.928,9.249-.157-7.833-.157-15.62-.157-24.325V546.6h28.512v85.417H-85.673L-103.467,602c-1.715-2.882-3.255-5.514-4.694-8.075.183,6.983.265,14.371.265,23.136v14.953h-58.191l-3.236-10.755h-27.326l-3.24,10.755h-27.927Zm143.895-3.072h24.769V549.665H-81.528v11.881c0,11.281,0,21.026.347,31.293l.246,7.322-3.165-6.606c-3.228-6.744-5.749-11.635-7.926-15.393l-16.552-28.5H-133.34v79.277h22.372V617.061c0-11.49-.142-20.6-.462-29.552l-.242-6.893,3.146,6.14c2.267,4.418,4.716,8.664,7.7,13.678Zm-79.881,0h23.74l-28.393-79.277h-29.739l-26.834,79.277h22.857l3.24-10.756h31.889Zm-88.832,0h23.293a27.281,27.281,0,0,1-1.089-6.666l-.925-12.15c-.682-9.294-3.747-14.137-10.58-16.724l-3.713-1.409,3.695-1.458c7.672-3.023,11.4-8.989,11.4-18.234,0-15.02-10.148-22.637-30.156-22.637h-39.059v79.277H-276.7V602.111h10.558c8.519,0,11.676,3.079,12.06,11.762l.347,8.213A20.922,20.922,0,0,0-252.633,628.942Zm291.022,3.072H4.877L-12.63,602.238-20.7,611.73v20.284H-49.906V546.6H-20.7v29.392L2.584,546.6H36.849L6.618,581.924ZM6.633,628.942H32.8L2.812,581.652l27.367-31.987H4.072l-27.841,35.144V549.665H-46.834v79.277h23.065V610.6l11.6-13.641ZM-171.9,602.175h-22.4l6.259-20.944,5.01-17.708,1.417,5.506c.727,2.837,1.588,5.778,2.416,8.623q.526,1.811,1.044,3.6Zm-18.275-3.072h14.152L-181.1,582.11c-.343-1.2-.693-2.4-1.044-3.6-.324-1.115-.652-2.244-.977-3.378l-1.968,6.953Zm-74.576-12.888H-276.7V566.721h11.945c8.727,0,10.558,5.3,10.558,9.745S-256.026,586.215-264.753,586.215Zm-8.873-3.072h8.873c5.249,0,7.486-1.995,7.486-6.677s-2.237-6.677-7.486-6.677h-8.873Z" transform="translate(302.835 -546.597)" fill="#fff"/>
        </g>
        <path id="Path_9" data-name="Path 9" d="M-283.314,574.19q5.1,0,7.8,1.953a6.613,6.613,0,0,1,2.7,5.712,6.59,6.59,0,0,1-2.7,5.7q-2.7,1.94-7.8,1.942h-8.72v7.6h-7.613V574.19Zm-1.38,10.562q3.892,0,3.9-2.9t-3.9-2.9h-7.34v5.793Zm61.08,7.9-2.043,4.448H-233.9l11.874-22.909h8.9l11.874,22.909h-8.429l-2.039-4.448Zm9.742-4.7-3.806-8.373-3.806,8.373Zm60.513,1.144v8h-7.616V574.19h16.746q5.234,0,7.881,1.831a6.342,6.342,0,0,1,2.654,5.614c0,2.248-.6,3.881-1.778,4.9a10.1,10.1,0,0,1-4.161,2.14l7.613,8.422h-9.175l-6.863-8Zm7.792-4.768a5.421,5.421,0,0,0,2.945-.63,2.3,2.3,0,0,0,.951-2.066,2.276,2.276,0,0,0-.951-2.046,5.451,5.451,0,0,0-2.945-.63h-7.792v5.372Zm52.084-5.372V574.19h27.1v4.768h-9.745V597.1h-7.613V578.958ZM-17.8,590.194a6.076,6.076,0,0,1,2.356-5.215q2.354-1.739,7.024-1.744H-.532q2.874,0,2.878-2.136t-2.878-2.14H-16.506V574.19H1.03q9.288,0,9.29,6.875,0,6.856-9.29,6.856H-6.854a3.8,3.8,0,0,0-2.241.53,1.936,1.936,0,0,0-.727,1.674v2.207h19.3V597.1H-17.8Z" transform="translate(311.532 -471.322)" fill="#fff"/>
      </g>
    </g>
  </g>
</svg>
